<?xml version="1.0" standalone="no"?>
<!DOCTYPE svg PUBLIC "-//W3C//DTD SVG 1.1//EN" "http://www.w3.org/Graphics/SVG/1.1/DTD/svg11.dtd">
<svg version="1.1" width="1200" height="358" onload="init(evt)" viewBox="0 0 1200 358" xmlns="http://www.w3.org/2000/svg" xmlns:xlink="http://www.w3.org/1999/xlink">
<!-- Flame graph stack visualization. See https://github.com/brendangregg/FlameGraph for latest version, and http://www.brendangregg.com/flamegraphs.html for examples. -->
<!-- NOTES:  -->
<defs>
	<linearGradient id="background" y1="0" y2="1" x1="0" x2="0" >
		<stop stop-color="#eeeeee" offset="5%" />
		<stop stop-color="#eeeeb0" offset="95%" />
	</linearGradient>
</defs>
<style type="text/css">
	text { font-family:Verdana; font-size:12px; fill:rgb(0,0,0); }
	#search, #ignorecase { opacity:0.1; cursor:pointer; }
	#search:hover, #search.show, #ignorecase:hover, #ignorecase.show { opacity:1; }
	#subtitle { text-anchor:middle; font-color:rgb(160,160,160); }
	#title { text-anchor:middle; font-size:17px}
	#unzoom { cursor:pointer; }
	#frames > *:hover { stroke:black; stroke-width:0.5; cursor:pointer; }
	.hide { display:none; }
	.parent { opacity:0.5; }
</style>
<script type="text/ecmascript">
<![CDATA[
	"use strict";
	var details, searchbtn, unzoombtn, matchedtxt, svg, searching, currentSearchTerm, ignorecase, ignorecaseBtn;
	function init(evt) {
		details = document.getElementById("details").firstChild;
		searchbtn = document.getElementById("search");
		ignorecaseBtn = document.getElementById("ignorecase");
		unzoombtn = document.getElementById("unzoom");
		matchedtxt = document.getElementById("matched");
		svg = document.getElementsByTagName("svg")[0];
		searching = 0;
		currentSearchTerm = null;

		// use GET parameters to restore a flamegraphs state.
		var params = get_params();
		if (params.x && params.y)
			zoom(find_group(document.querySelector('[x="' + params.x + '"][y="' + params.y + '"]')));
                if (params.s) search(params.s);
	}

	// event listeners
	window.addEventListener("click", function(e) {
		var target = find_group(e.target);
		if (target) {
			if (target.nodeName == "a") {
				if (e.ctrlKey === false) return;
				e.preventDefault();
			}
			if (target.classList.contains("parent")) unzoom(true);
			zoom(target);
			if (!document.querySelector('.parent')) {
				// we have basically done a clearzoom so clear the url
				var params = get_params();
				if (params.x) delete params.x;
				if (params.y) delete params.y;
				history.replaceState(null, null, parse_params(params));
				unzoombtn.classList.add("hide");
				return;
			}

			// set parameters for zoom state
			var el = target.querySelector("rect");
			if (el && el.attributes && el.attributes.y && el.attributes._orig_x) {
				var params = get_params()
				params.x = el.attributes._orig_x.value;
				params.y = el.attributes.y.value;
				history.replaceState(null, null, parse_params(params));
			}
		}
		else if (e.target.id == "unzoom") clearzoom();
		else if (e.target.id == "search") search_prompt();
		else if (e.target.id == "ignorecase") toggle_ignorecase();
	}, false)

	// mouse-over for info
	// show
	window.addEventListener("mouseover", function(e) {
		var target = find_group(e.target);
		if (target) details.nodeValue = "Function: " + g_to_text(target);
	}, false)

	// clear
	window.addEventListener("mouseout", function(e) {
		var target = find_group(e.target);
		if (target) details.nodeValue = ' ';
	}, false)

	// ctrl-F for search
	// ctrl-I to toggle case-sensitive search
	window.addEventListener("keydown",function (e) {
		if (e.keyCode === 114 || (e.ctrlKey && e.keyCode === 70)) {
			e.preventDefault();
			search_prompt();
		}
		else if (e.ctrlKey && e.keyCode === 73) {
			e.preventDefault();
			toggle_ignorecase();
		}
	}, false)

	// functions
	function get_params() {
		var params = {};
		var paramsarr = window.location.search.substr(1).split('&');
		for (var i = 0; i < paramsarr.length; ++i) {
			var tmp = paramsarr[i].split("=");
			if (!tmp[0] || !tmp[1]) continue;
			params[tmp[0]]  = decodeURIComponent(tmp[1]);
		}
		return params;
	}
	function parse_params(params) {
		var uri = "?";
		for (var key in params) {
			uri += key + '=' + encodeURIComponent(params[key]) + '&';
		}
		if (uri.slice(-1) == "&")
			uri = uri.substring(0, uri.length - 1);
		if (uri == '?')
			uri = window.location.href.split('?')[0];
		return uri;
	}
	function find_child(node, selector) {
		var children = node.querySelectorAll(selector);
		if (children.length) return children[0];
	}
	function find_group(node) {
		var parent = node.parentElement;
		if (!parent) return;
		if (parent.id == "frames") return node;
		return find_group(parent);
	}
	function orig_save(e, attr, val) {
		if (e.attributes["_orig_" + attr] != undefined) return;
		if (e.attributes[attr] == undefined) return;
		if (val == undefined) val = e.attributes[attr].value;
		e.setAttribute("_orig_" + attr, val);
	}
	function orig_load(e, attr) {
		if (e.attributes["_orig_"+attr] == undefined) return;
		e.attributes[attr].value = e.attributes["_orig_" + attr].value;
		e.removeAttribute("_orig_"+attr);
	}
	function g_to_text(e) {
		var text = find_child(e, "title").firstChild.nodeValue;
		return (text)
	}
	function g_to_func(e) {
		var func = g_to_text(e);
		// if there's any manipulation we want to do to the function
		// name before it's searched, do it here before returning.
		return (func);
	}
	function update_text(e) {
		var r = find_child(e, "rect");
		var t = find_child(e, "text");
		var w = parseFloat(r.attributes.width.value) -3;
		var txt = find_child(e, "title").textContent.replace(/\([^(]*\)$/,"");
		t.attributes.x.value = parseFloat(r.attributes.x.value) + 3;

		// Smaller than this size won't fit anything
		if (w < 2 * 12 * 0.59) {
			t.textContent = "";
			return;
		}

		t.textContent = txt;
		var sl = t.getSubStringLength(0, txt.length);
		// check if only whitespace or if we can fit the entire string into width w
		if (/^ *$/.test(txt) || sl < w)
			return;

		// this isn't perfect, but gives a good starting point
		// and avoids calling getSubStringLength too often
		var start = Math.floor((w/sl) * txt.length);
		for (var x = start; x > 0; x = x-2) {
			if (t.getSubStringLength(0, x + 2) <= w) {
				t.textContent = txt.substring(0, x) + "..";
				return;
			}
		}
		t.textContent = "";
	}

	// zoom
	function zoom_reset(e) {
		if (e.attributes != undefined) {
			orig_load(e, "x");
			orig_load(e, "width");
		}
		if (e.childNodes == undefined) return;
		for (var i = 0, c = e.childNodes; i < c.length; i++) {
			zoom_reset(c[i]);
		}
	}
	function zoom_child(e, x, ratio) {
		if (e.attributes != undefined) {
			if (e.attributes.x != undefined) {
				orig_save(e, "x");
				e.attributes.x.value = (parseFloat(e.attributes.x.value) - x - 10) * ratio + 10;
				if (e.tagName == "text")
					e.attributes.x.value = find_child(e.parentNode, "rect[x]").attributes.x.value + 3;
			}
			if (e.attributes.width != undefined) {
				orig_save(e, "width");
				e.attributes.width.value = parseFloat(e.attributes.width.value) * ratio;
			}
		}

		if (e.childNodes == undefined) return;
		for (var i = 0, c = e.childNodes; i < c.length; i++) {
			zoom_child(c[i], x - 10, ratio);
		}
	}
	function zoom_parent(e) {
		if (e.attributes) {
			if (e.attributes.x != undefined) {
				orig_save(e, "x");
				e.attributes.x.value = 10;
			}
			if (e.attributes.width != undefined) {
				orig_save(e, "width");
				e.attributes.width.value = parseInt(svg.width.baseVal.value) - (10 * 2);
			}
		}
		if (e.childNodes == undefined) return;
		for (var i = 0, c = e.childNodes; i < c.length; i++) {
			zoom_parent(c[i]);
		}
	}
	function zoom(node) {
		var attr = find_child(node, "rect").attributes;
		var width = parseFloat(attr.width.value);
		var xmin = parseFloat(attr.x.value);
		var xmax = parseFloat(xmin + width);
		var ymin = parseFloat(attr.y.value);
		var ratio = (svg.width.baseVal.value - 2 * 10) / width;

		// XXX: Workaround for JavaScript float issues (fix me)
		var fudge = 0.0001;

		unzoombtn.classList.remove("hide");

		var el = document.getElementById("frames").children;
		for (var i = 0; i < el.length; i++) {
			var e = el[i];
			var a = find_child(e, "rect").attributes;
			var ex = parseFloat(a.x.value);
			var ew = parseFloat(a.width.value);
			var upstack;
			// Is it an ancestor
			if (0 == 0) {
				upstack = parseFloat(a.y.value) > ymin;
			} else {
				upstack = parseFloat(a.y.value) < ymin;
			}
			if (upstack) {
				// Direct ancestor
				if (ex <= xmin && (ex+ew+fudge) >= xmax) {
					e.classList.add("parent");
					zoom_parent(e);
					update_text(e);
				}
				// not in current path
				else
					e.classList.add("hide");
			}
			// Children maybe
			else {
				// no common path
				if (ex < xmin || ex + fudge >= xmax) {
					e.classList.add("hide");
				}
				else {
					zoom_child(e, xmin, ratio);
					update_text(e);
				}
			}
		}
		search();
	}
	function unzoom(dont_update_text) {
		unzoombtn.classList.add("hide");
		var el = document.getElementById("frames").children;
		for(var i = 0; i < el.length; i++) {
			el[i].classList.remove("parent");
			el[i].classList.remove("hide");
			zoom_reset(el[i]);
			if(!dont_update_text) update_text(el[i]);
		}
		search();
	}
	function clearzoom() {
		unzoom();

		// remove zoom state
		var params = get_params();
		if (params.x) delete params.x;
		if (params.y) delete params.y;
		history.replaceState(null, null, parse_params(params));
	}

	// search
	function toggle_ignorecase() {
		ignorecase = !ignorecase;
		if (ignorecase) {
			ignorecaseBtn.classList.add("show");
		} else {
			ignorecaseBtn.classList.remove("show");
		}
		reset_search();
		search();
	}
	function reset_search() {
		var el = document.querySelectorAll("#frames rect");
		for (var i = 0; i < el.length; i++) {
			orig_load(el[i], "fill")
		}
		var params = get_params();
		delete params.s;
		history.replaceState(null, null, parse_params(params));
	}
	function search_prompt() {
		if (!searching) {
			var term = prompt("Enter a search term (regexp " +
			    "allowed, eg: ^ext4_)"
			    + (ignorecase ? ", ignoring case" : "")
			    + "\nPress Ctrl-i to toggle case sensitivity", "");
			if (term != null) search(term);
		} else {
			reset_search();
			searching = 0;
			currentSearchTerm = null;
			searchbtn.classList.remove("show");
			searchbtn.firstChild.nodeValue = "Search"
			matchedtxt.classList.add("hide");
			matchedtxt.firstChild.nodeValue = ""
		}
	}
	function search(term) {
		if (term) currentSearchTerm = term;

		var re = new RegExp(currentSearchTerm, ignorecase ? 'i' : '');
		var el = document.getElementById("frames").children;
		var matches = new Object();
		var maxwidth = 0;
		for (var i = 0; i < el.length; i++) {
			var e = el[i];
			var func = g_to_func(e);
			var rect = find_child(e, "rect");
			if (func == null || rect == null)
				continue;

			// Save max width. Only works as we have a root frame
			var w = parseFloat(rect.attributes.width.value);
			if (w > maxwidth)
				maxwidth = w;

			if (func.match(re)) {
				// highlight
				var x = parseFloat(rect.attributes.x.value);
				orig_save(rect, "fill");
				rect.attributes.fill.value = "rgb(230,0,230)";

				// remember matches
				if (matches[x] == undefined) {
					matches[x] = w;
				} else {
					if (w > matches[x]) {
						// overwrite with parent
						matches[x] = w;
					}
				}
				searching = 1;
			}
		}
		if (!searching)
			return;
		var params = get_params();
		params.s = currentSearchTerm;
		history.replaceState(null, null, parse_params(params));

		searchbtn.classList.add("show");
		searchbtn.firstChild.nodeValue = "Reset Search";

		// calculate percent matched, excluding vertical overlap
		var count = 0;
		var lastx = -1;
		var lastw = 0;
		var keys = Array();
		for (k in matches) {
			if (matches.hasOwnProperty(k))
				keys.push(k);
		}
		// sort the matched frames by their x location
		// ascending, then width descending
		keys.sort(function(a, b){
			return a - b;
		});
		// Step through frames saving only the biggest bottom-up frames
		// thanks to the sort order. This relies on the tree property
		// where children are always smaller than their parents.
		var fudge = 0.0001;	// JavaScript floating point
		for (var k in keys) {
			var x = parseFloat(keys[k]);
			var w = matches[keys[k]];
			if (x >= lastx + lastw - fudge) {
				count += w;
				lastx = x;
				lastw = w;
			}
		}
		// display matched percent
		matchedtxt.classList.remove("hide");
		var pct = 100 * count / maxwidth;
		if (pct != 100) pct = pct.toFixed(1)
		matchedtxt.firstChild.nodeValue = "Matched: " + pct + "%";
	}
]]>
</script>
<rect x="0.0" y="0" width="1200.0" height="358.0" fill="url(#background)"  />
<text id="title" x="600.00" y="24" >ogbn-citation/full-graph</text>
<text id="details" x="10.00" y="341" > </text>
<text id="unzoom" x="10.00" y="24" class="hide">Reset Zoom</text>
<text id="search" x="1090.00" y="24" >Search</text>
<text id="ignorecase" x="1174.00" y="24" >ic</text>
<text id="matched" x="1090.00" y="341" > </text>
<g id="frames">
<g >
<title>&lt;built-in_method_mul__of_Tensor_object_at_0x7f511c0b3db0&gt; (613,201 us., 0.01%)</title><rect x="1003.7" y="181" width="0.1" height="15.0" fill="rgb(239,13,32)" rx="2" ry="2" />
<text  x="1006.67" y="191.5" ></text>
</g>
<g >
<title>dgl/ops/spmm.py(37):_gspmm (2,049,086,072 us., 29.13%)</title><rect x="199.6" y="133" width="343.7" height="15.0" fill="rgb(210,105,26)" rx="2" ry="2" />
<text  x="202.60" y="143.5" >dgl/ops/spmm.py(37):_gspmm</text>
</g>
<g >
<title>nn.Module:_Linear_0 (168,012,359 us., 2.39%)</title><rect x="543.3" y="197" width="28.2" height="15.0" fill="rgb(239,39,46)" rx="2" ry="2" />
<text  x="546.29" y="207.5" >n..</text>
</g>
<g >
<title>dgl/backend/pytorch/sparse.py(163):_forward (121,324,183 us., 1.72%)</title><rect x="521.8" y="85" width="20.3" height="15.0" fill="rgb(206,157,50)" rx="2" ry="2" />
<text  x="524.77" y="95.5" ></text>
</g>
<g >
<title>dgl/backend/pytorch/tensor.py(282):_zeros (121,293,749 us., 1.72%)</title><rect x="521.8" y="53" width="20.3" height="15.0" fill="rgb(231,31,40)" rx="2" ry="2" />
<text  x="524.77" y="63.5" ></text>
</g>
<g >
<title>link.py(174):_&lt;module&gt; (7,035,303,560 us., 100.00%)</title><rect x="10.0" y="293" width="1180.0" height="15.0" fill="rgb(254,45,1)" rx="2" ry="2" />
<text  x="13.00" y="303.5" >link.py(174):_&lt;module&gt;</text>
</g>
<g >
<title>nn.Module:_SAGE_0 (4,283,566,227 us., 60.89%)</title><rect x="182.3" y="261" width="718.5" height="15.0" fill="rgb(209,4,35)" rx="2" ry="2" />
<text  x="185.32" y="271.5" >nn.Module:_SAGE_0</text>
</g>
<g >
<title>dgl/backend/pytorch/sparse.py(163):_forward (12,959,082 us., 0.18%)</title><rect x="804.9" y="85" width="2.2" height="15.0" fill="rgb(254,208,3)" rx="2" ry="2" />
<text  x="807.93" y="95.5" ></text>
</g>
<g >
<title>torch/utils/data/dataloader.py(1286):__next_data (642,817 us., 0.01%)</title><rect x="150.5" y="197" width="0.1" height="15.0" fill="rgb(228,178,25)" rx="2" ry="2" />
<text  x="153.47" y="207.5" ></text>
</g>
<g >
<title>&lt;built-in_method_apply_of_FunctionMeta_object_at_0x546c830&gt; (1,924,987,394 us., 27.36%)</title><rect x="219.2" y="101" width="322.9" height="15.0" fill="rgb(254,113,3)" rx="2" ry="2" />
<text  x="222.25" y="111.5" >&lt;built-in_method_apply_of_FunctionMeta_obje..</text>
</g>
<g >
<title>torch/nn/functional.py(1235):_dropout (119,711,973 us., 1.70%)</title><rect x="809.5" y="165" width="20.0" height="15.0" fill="rgb(227,59,49)" rx="2" ry="2" />
<text  x="812.46" y="175.5" ></text>
</g>
<g >
<title>dgl/backend/pytorch/sparse.py(1023):_gspmm (43,034,730 us., 0.61%)</title><rect x="841.4" y="117" width="7.2" height="15.0" fill="rgb(248,218,8)" rx="2" ry="2" />
<text  x="844.37" y="127.5" ></text>
</g>
<g >
<title>nn.Module:_SAGEConv_1 (1,383,526,326 us., 19.67%)</title><rect x="609.2" y="229" width="232.0" height="15.0" fill="rgb(251,52,31)" rx="2" ry="2" />
<text  x="612.15" y="239.5" >nn.Module:_SAGEConv_1</text>
</g>
<g >
<title>dgl/core.py(364):_message_passing (1,182,620,118 us., 16.81%)</title><rect x="611.1" y="181" width="198.4" height="15.0" fill="rgb(243,64,26)" rx="2" ry="2" />
<text  x="614.10" y="191.5" >dgl/core.py(364):_message_..</text>
</g>
<g >
<title>dgl/nn/pytorch/conv/sageconv.py(170):_forward (61,620,073 us., 0.88%)</title><rect x="841.2" y="213" width="10.3" height="15.0" fill="rgb(241,26,4)" rx="2" ry="2" />
<text  x="844.20" y="223.5" ></text>
</g>
<g >
<title>&lt;built-in_method_type_of_Tensor_object_at_0x7f511c0b3d60&gt; (2,908,318 us., 0.04%)</title><rect x="542.1" y="101" width="0.5" height="15.0" fill="rgb(244,224,32)" rx="2" ry="2" />
<text  x="545.12" y="111.5" ></text>
</g>
<g >
<title>dgl/backend/pytorch/sparse.py(1023):_gspmm (1,924,987,394 us., 27.36%)</title><rect x="219.2" y="117" width="322.9" height="15.0" fill="rgb(238,0,4)" rx="2" ry="2" />
<text  x="222.25" y="127.5" >dgl/backend/pytorch/sparse.py(1023):_gspmm</text>
</g>
<g >
<title>&lt;built-in_method_dropout_of_type_object_at_0x7f51fbf6ab00&gt; (119,711,973 us., 1.70%)</title><rect x="809.5" y="149" width="20.0" height="15.0" fill="rgb(221,221,54)" rx="2" ry="2" />
<text  x="812.46" y="159.5" ></text>
</g>
<g >
<title>dgl/ops/spmm.py(213):_func (1,182,620,118 us., 16.81%)</title><rect x="611.1" y="149" width="198.4" height="15.0" fill="rgb(215,111,10)" rx="2" ry="2" />
<text  x="614.10" y="159.5" >dgl/ops/spmm.py(213):_func</text>
</g>
<g >
<title>&lt;built-in_method_apply_of_FunctionMeta_object_at_0x546c830&gt; (43,034,730 us., 0.61%)</title><rect x="841.4" y="101" width="7.2" height="15.0" fill="rgb(207,154,18)" rx="2" ry="2" />
<text  x="844.37" y="111.5" ></text>
</g>
<g >
<title>&lt;built-in_function_linear&gt; (2,018,991 us., 0.03%)</title><rect x="852.1" y="165" width="0.4" height="15.0" fill="rgb(238,177,23)" rx="2" ry="2" />
<text  x="855.14" y="175.5" ></text>
</g>
<g >
<title>&lt;built-in_method__record_function_enter_of_PyCapsule_object_at_0x7f51e6389ba0&gt; (1,109,590,294 us., 15.77%)</title><rect x="1003.9" y="245" width="186.1" height="15.0" fill="rgb(209,94,39)" rx="2" ry="2" />
<text  x="1006.89" y="255.5" >&lt;built-in_method__record..</text>
</g>
<g >
<title>torch/nn/functional.py(1446):_relu (286,652,196 us., 4.07%)</title><rect x="852.7" y="229" width="48.1" height="15.0" fill="rgb(237,61,2)" rx="2" ry="2" />
<text  x="855.71" y="239.5" >torc..</text>
</g>
<g >
<title>dgl/backend/pytorch/sparse.py(1023):_gspmm (1,145,680,786 us., 16.28%)</title><rect x="614.9" y="117" width="192.2" height="15.0" fill="rgb(250,170,23)" rx="2" ry="2" />
<text  x="617.94" y="127.5" >dgl/backend/pytorch/spars..</text>
</g>
<g >
<title>torch/nn/modules/linear.py(113):_forward (1,749,639 us., 0.02%)</title><rect x="851.5" y="181" width="0.3" height="15.0" fill="rgb(247,217,46)" rx="2" ry="2" />
<text  x="854.54" y="191.5" ></text>
</g>
<g >
<title>multiprocessing/queues.py(92):_get (642,817 us., 0.01%)</title><rect x="150.5" y="149" width="0.1" height="15.0" fill="rgb(224,85,49)" rx="2" ry="2" />
<text  x="153.47" y="159.5" ></text>
</g>
<g >
<title>nn.Module:_Linear_8 (2,018,991 us., 0.03%)</title><rect x="852.1" y="197" width="0.4" height="15.0" fill="rgb(230,130,47)" rx="2" ry="2" />
<text  x="855.14" y="207.5" ></text>
</g>
<g >
<title>&lt;built-in_function_linear&gt; (36,360,294 us., 0.52%)</title><rect x="835.1" y="165" width="6.1" height="15.0" fill="rgb(236,88,7)" rx="2" ry="2" />
<text  x="838.11" y="175.5" ></text>
</g>
<g >
<title>nn.Module:_Linear_1 (224,685,783 us., 3.19%)</title><rect x="571.5" y="197" width="37.7" height="15.0" fill="rgb(241,44,2)" rx="2" ry="2" />
<text  x="574.47" y="207.5" >nn...</text>
</g>
<g >
<title>dgl/backend/__init__.py(141):_to_dgl_nd (12,523,984 us., 0.18%)</title><rect x="807.3" y="85" width="2.1" height="15.0" fill="rgb(254,8,39)" rx="2" ry="2" />
<text  x="810.29" y="95.5" ></text>
</g>
<g >
<title>dgl/heterograph.py(3365):_in_degrees (1,489,995 us., 0.02%)</title><rect x="543.0" y="117" width="0.3" height="15.0" fill="rgb(219,126,48)" rx="2" ry="2" />
<text  x="546.04" y="127.5" ></text>
</g>
<g >
<title>dgl/ops/spmm.py(37):_gspmm (1,182,620,118 us., 16.81%)</title><rect x="611.1" y="133" width="198.4" height="15.0" fill="rgb(206,28,50)" rx="2" ry="2" />
<text  x="614.10" y="143.5" >dgl/ops/spmm.py(37):_gspmm</text>
</g>
<g >
<title>torch/nn/modules/linear.py(113):_forward (33,209,050 us., 0.47%)</title><rect x="829.5" y="181" width="5.6" height="15.0" fill="rgb(221,139,27)" rx="2" ry="2" />
<text  x="832.54" y="191.5" ></text>
</g>
<g >
<title>dgl/heterograph.py(4685):_update_all (44,111,642 us., 0.63%)</title><rect x="841.3" y="197" width="7.4" height="15.0" fill="rgb(252,118,14)" rx="2" ry="2" />
<text  x="844.29" y="207.5" ></text>
</g>
<g >
<title>dgl/_sparse_ops.py(156):__gspmm (121,324,183 us., 1.72%)</title><rect x="521.8" y="69" width="20.3" height="15.0" fill="rgb(205,79,19)" rx="2" ry="2" />
<text  x="524.77" y="79.5" ></text>
</g>
<g >
<title>nn.Module:_SAGEConv_0 (2,534,307,056 us., 36.02%)</title><rect x="184.1" y="229" width="425.1" height="15.0" fill="rgb(254,171,21)" rx="2" ry="2" />
<text  x="187.08" y="239.5" >nn.Module:_SAGEConv_0</text>
</g>
<g >
<title>&lt;built-in_function_linear&gt; (1,834,929 us., 0.03%)</title><rect x="851.8" y="165" width="0.3" height="15.0" fill="rgb(229,203,11)" rx="2" ry="2" />
<text  x="854.83" y="175.5" ></text>
</g>
<g >
<title>torch/nn/modules/linear.py(113):_forward (1,883,320 us., 0.03%)</title><rect x="850.9" y="181" width="0.3" height="15.0" fill="rgb(241,43,0)" rx="2" ry="2" />
<text  x="853.92" y="191.5" ></text>
</g>
<g >
<title>torch/utils/data/dataloader.py(1107):__try_get_data (642,817 us., 0.01%)</title><rect x="150.5" y="165" width="0.1" height="15.0" fill="rgb(252,126,25)" rx="2" ry="2" />
<text  x="153.47" y="175.5" ></text>
</g>
<g >
<title>nn.Module:_SAGEConv_2 (61,620,073 us., 0.88%)</title><rect x="841.2" y="229" width="10.3" height="15.0" fill="rgb(213,18,15)" rx="2" ry="2" />
<text  x="844.20" y="239.5" ></text>
</g>
<g >
<title>dgl/dataloading/dataloader.py(511):___next__ (837,786,517 us., 11.91%)</title><rect x="10.1" y="261" width="140.5" height="15.0" fill="rgb(246,187,8)" rx="2" ry="2" />
<text  x="13.06" y="271.5" >dgl/dataloading/d..</text>
</g>
<g >
<title>torch/optim/adam.py(168):_step (2,215,084 us., 0.03%)</title><rect x="1003.4" y="229" width="0.4" height="15.0" fill="rgb(217,189,11)" rx="2" ry="2" />
<text  x="1006.45" y="239.5" ></text>
</g>
<g >
<title>all (7,035,303,560 us., 100%)</title><rect x="10.0" y="309" width="1180.0" height="15.0" fill="rgb(237,9,20)" rx="2" ry="2" />
<text  x="13.00" y="319.5" ></text>
</g>
<g >
<title>torch/optim/adam.py(319):__single_tensor_adam (2,214,804 us., 0.03%)</title><rect x="1003.4" y="197" width="0.4" height="15.0" fill="rgb(236,12,40)" rx="2" ry="2" />
<text  x="1006.45" y="207.5" ></text>
</g>
<g >
<title>torch/utils/data/dataloader.py(623):___next__ (837,785,502 us., 11.91%)</title><rect x="10.1" y="213" width="140.5" height="15.0" fill="rgb(243,52,20)" rx="2" ry="2" />
<text  x="13.06" y="223.5" >torch/utils/data/..</text>
</g>
<g >
<title>torch/nn/modules/linear.py(113):_forward (1,835,825 us., 0.03%)</title><rect x="851.2" y="181" width="0.3" height="15.0" fill="rgb(233,201,23)" rx="2" ry="2" />
<text  x="854.23" y="191.5" ></text>
</g>
<g >
<title>&lt;built-in_function_linear&gt; (33,209,050 us., 0.47%)</title><rect x="829.5" y="165" width="5.6" height="15.0" fill="rgb(240,141,52)" rx="2" ry="2" />
<text  x="832.54" y="175.5" ></text>
</g>
<g >
<title>dgl/frame.py(215):_data (189,194,598 us., 2.69%)</title><rect x="150.6" y="229" width="31.7" height="15.0" fill="rgb(220,172,14)" rx="2" ry="2" />
<text  x="153.59" y="239.5" >dg..</text>
</g>
<g >
<title>&lt;built-in_method_relu_of_type_object_at_0x7f51fbf6ab00&gt; (669,901 us., 0.01%)</title><rect x="852.5" y="149" width="0.1" height="15.0" fill="rgb(205,162,15)" rx="2" ry="2" />
<text  x="855.48" y="159.5" ></text>
</g>
<g >
<title>dgl/heterograph.py(4685):_update_all (2,049,086,072 us., 29.13%)</title><rect x="199.6" y="197" width="343.7" height="15.0" fill="rgb(234,0,47)" rx="2" ry="2" />
<text  x="202.60" y="207.5" >dgl/heterograph.py(4685):_update_all</text>
</g>
<g >
<title>dgl/view.py(69):___getitem__ (189,194,598 us., 2.69%)</title><rect x="150.6" y="261" width="31.7" height="15.0" fill="rgb(217,229,13)" rx="2" ry="2" />
<text  x="153.59" y="271.5" >dg..</text>
</g>
<g >
<title>&lt;built-in_function_linear&gt; (168,012,359 us., 2.39%)</title><rect x="543.3" y="165" width="28.2" height="15.0" fill="rgb(218,125,5)" rx="2" ry="2" />
<text  x="546.29" y="175.5" >&lt;..</text>
</g>
<g >
<title>&lt;built-in_method_clamp_of_type_object_at_0x7f51fbf6ab00&gt; (2,512,251 us., 0.04%)</title><rect x="542.6" y="101" width="0.4" height="15.0" fill="rgb(225,146,2)" rx="2" ry="2" />
<text  x="545.61" y="111.5" ></text>
</g>
<g >
<title>nn.Module:_Linear_2 (33,209,050 us., 0.47%)</title><rect x="829.5" y="197" width="5.6" height="15.0" fill="rgb(216,185,3)" rx="2" ry="2" />
<text  x="832.54" y="207.5" ></text>
</g>
<g >
<title>torch/nn/modules/linear.py(113):_forward (224,685,783 us., 3.19%)</title><rect x="571.5" y="181" width="37.7" height="15.0" fill="rgb(225,120,32)" rx="2" ry="2" />
<text  x="574.47" y="191.5" >tor..</text>
</g>
<g >
<title>&lt;built-in_function_next&gt; (837,785,502 us., 11.91%)</title><rect x="10.1" y="229" width="140.5" height="15.0" fill="rgb(217,62,46)" rx="2" ry="2" />
<text  x="13.06" y="239.5" >&lt;built-in_functio..</text>
</g>
<g >
<title>dgl/backend/pytorch/tensor.py(401):_arange (1,416,837 us., 0.02%)</title><rect x="543.0" y="85" width="0.3" height="15.0" fill="rgb(217,62,42)" rx="2" ry="2" />
<text  x="546.05" y="95.5" ></text>
</g>
<g >
<title>&lt;built-in_method_zeros_of_type_object_at_0x7f51fbf6ab00&gt; (121,293,749 us., 1.72%)</title><rect x="521.8" y="37" width="20.3" height="15.0" fill="rgb(221,149,46)" rx="2" ry="2" />
<text  x="524.77" y="47.5" ></text>
</g>
<g >
<title>&lt;built-in_method_dropout_of_type_object_at_0x7f51fbf6ab00&gt; (13,283,681 us., 0.19%)</title><rect x="848.7" y="149" width="2.2" height="15.0" fill="rgb(210,34,3)" rx="2" ry="2" />
<text  x="851.69" y="159.5" ></text>
</g>
<g >
<title>torch/nn/modules/container.py(202):_forward (6,951,698 us., 0.10%)</title><rect x="851.5" y="213" width="1.2" height="15.0" fill="rgb(207,7,10)" rx="2" ry="2" />
<text  x="854.54" y="223.5" ></text>
</g>
<g >
<title>&lt;built-in_function__to_dlpack&gt; (12,523,984 us., 0.18%)</title><rect x="807.3" y="53" width="2.1" height="15.0" fill="rgb(231,47,5)" rx="2" ry="2" />
<text  x="810.29" y="63.5" ></text>
</g>
<g >
<title>dgl/backend/pytorch/tensor.py(282):_zeros (12,928,199 us., 0.18%)</title><rect x="804.9" y="53" width="2.2" height="15.0" fill="rgb(226,3,44)" rx="2" ry="2" />
<text  x="807.93" y="63.5" ></text>
</g>
<g >
<title>&lt;built-in_method_arange_of_type_object_at_0x7f51fbf6ab00&gt; (1,416,837 us., 0.02%)</title><rect x="543.0" y="69" width="0.3" height="15.0" fill="rgb(210,40,15)" rx="2" ry="2" />
<text  x="546.05" y="79.5" ></text>
</g>
<g >
<title>nn.Module:_Dropout_1 (119,711,973 us., 1.70%)</title><rect x="809.5" y="197" width="20.0" height="15.0" fill="rgb(214,44,31)" rx="2" ry="2" />
<text  x="812.46" y="207.5" ></text>
</g>
<g >
<title>torch/nn/functional.py(1446):_relu (678,238 us., 0.01%)</title><rect x="852.6" y="165" width="0.1" height="15.0" fill="rgb(242,90,6)" rx="2" ry="2" />
<text  x="855.59" y="175.5" ></text>
</g>
<g >
<title>dgl/core.py(303):_invoke_gspmm (2,049,086,072 us., 29.13%)</title><rect x="199.6" y="165" width="343.7" height="15.0" fill="rgb(223,173,37)" rx="2" ry="2" />
<text  x="202.60" y="175.5" >dgl/core.py(303):_invoke_gspmm</text>
</g>
<g >
<title>torch/optim/optimizer.py(135):_wrapper (3,525,940 us., 0.05%)</title><rect x="1003.2" y="261" width="0.6" height="15.0" fill="rgb(246,195,16)" rx="2" ry="2" />
<text  x="1006.23" y="271.5" ></text>
</g>
<g >
<title>dgl/ops/spmm.py(37):_gspmm (44,111,642 us., 0.63%)</title><rect x="841.3" y="133" width="7.4" height="15.0" fill="rgb(250,93,34)" rx="2" ry="2" />
<text  x="844.29" y="143.5" ></text>
</g>
<g >
<title>dgl/heterograph.py(3365):_in_degrees (12,908,048 us., 0.18%)</title><rect x="807.3" y="117" width="2.2" height="15.0" fill="rgb(229,187,10)" rx="2" ry="2" />
<text  x="810.29" y="127.5" ></text>
</g>
<g >
<title>dgl/ops/spmm.py(213):_func (44,111,642 us., 0.63%)</title><rect x="841.3" y="149" width="7.4" height="15.0" fill="rgb(226,208,28)" rx="2" ry="2" />
<text  x="844.29" y="159.5" ></text>
</g>
<g >
<title>&lt;built-in_function_linear&gt; (1,883,320 us., 0.03%)</title><rect x="850.9" y="165" width="0.3" height="15.0" fill="rgb(234,19,47)" rx="2" ry="2" />
<text  x="853.92" y="175.5" ></text>
</g>
<g >
<title>torch/nn/modules/activation.py(101):_forward (669,901 us., 0.01%)</title><rect x="852.5" y="181" width="0.1" height="15.0" fill="rgb(237,227,43)" rx="2" ry="2" />
<text  x="855.48" y="191.5" ></text>
</g>
<g >
<title>torch/nn/modules/linear.py(113):_forward (2,018,991 us., 0.03%)</title><rect x="852.1" y="181" width="0.4" height="15.0" fill="rgb(209,200,14)" rx="2" ry="2" />
<text  x="855.14" y="191.5" ></text>
</g>
<g >
<title>torch/optim/adam.py(257):_adam (2,214,804 us., 0.03%)</title><rect x="1003.4" y="213" width="0.4" height="15.0" fill="rgb(225,112,14)" rx="2" ry="2" />
<text  x="1006.45" y="223.5" ></text>
</g>
<g >
<title>dgl/backend/pytorch/tensor.py(429):_zerocopy_to_dgl_ndarray (12,523,984 us., 0.18%)</title><rect x="807.3" y="69" width="2.1" height="15.0" fill="rgb(235,111,3)" rx="2" ry="2" />
<text  x="810.29" y="79.5" ></text>
</g>
<g >
<title>dgl/frame.py(658):___getitem__ (189,194,598 us., 2.69%)</title><rect x="150.6" y="245" width="31.7" height="15.0" fill="rgb(238,186,12)" rx="2" ry="2" />
<text  x="153.59" y="255.5" >dg..</text>
</g>
<g >
<title>torch/nn/modules/activation.py(101):_forward (678,238 us., 0.01%)</title><rect x="852.6" y="181" width="0.1" height="15.0" fill="rgb(229,131,26)" rx="2" ry="2" />
<text  x="855.59" y="191.5" ></text>
</g>
<g >
<title>dgl/dataloading/dataloader.py(492):__next_non_threaded (837,786,517 us., 11.91%)</title><rect x="10.1" y="245" width="140.5" height="15.0" fill="rgb(245,221,21)" rx="2" ry="2" />
<text  x="13.06" y="255.5" >dgl/dataloading/d..</text>
</g>
<g >
<title>torch/utils/data/dataloader.py(1253):__get_data (642,817 us., 0.01%)</title><rect x="150.5" y="181" width="0.1" height="15.0" fill="rgb(242,56,43)" rx="2" ry="2" />
<text  x="153.47" y="191.5" ></text>
</g>
<g >
<title>torch/_ops.py(437):___call__ (837,131,821 us., 11.90%)</title><rect x="10.1" y="181" width="140.4" height="15.0" fill="rgb(247,229,7)" rx="2" ry="2" />
<text  x="13.06" y="191.5" >torch/_ops.py(437..</text>
</g>
<g >
<title>torch/autograd/profiler.py(487):___enter__ (837,131,821 us., 11.90%)</title><rect x="10.1" y="197" width="140.4" height="15.0" fill="rgb(217,21,39)" rx="2" ry="2" />
<text  x="13.06" y="207.5" >torch/autograd/pr..</text>
</g>
<g >
<title>torch/_ops.py(437):___call__ (1,109,590,294 us., 15.77%)</title><rect x="1003.9" y="261" width="186.1" height="15.0" fill="rgb(230,68,25)" rx="2" ry="2" />
<text  x="1006.89" y="271.5" >torch/_ops.py(437):___ca..</text>
</g>
<g >
<title>torch/nn/functional.py(1235):_dropout (13,283,681 us., 0.19%)</title><rect x="848.7" y="165" width="2.2" height="15.0" fill="rgb(210,169,26)" rx="2" ry="2" />
<text  x="851.69" y="175.5" ></text>
</g>
<g >
<title>dgl/core.py(364):_message_passing (2,049,086,072 us., 29.13%)</title><rect x="199.6" y="181" width="343.7" height="15.0" fill="rgb(208,200,40)" rx="2" ry="2" />
<text  x="202.60" y="191.5" >dgl/core.py(364):_message_passing</text>
</g>
<g >
<title>torch/autograd/profiler.py(487):___enter__ (1,276,994 us., 0.02%)</title><rect x="1003.2" y="245" width="0.2" height="15.0" fill="rgb(240,31,3)" rx="2" ry="2" />
<text  x="1006.23" y="255.5" ></text>
</g>
<g >
<title>dgl/core.py(364):_message_passing (44,111,642 us., 0.63%)</title><rect x="841.3" y="181" width="7.4" height="15.0" fill="rgb(240,87,39)" rx="2" ry="2" />
<text  x="844.29" y="191.5" ></text>
</g>
<g >
<title>nn.Module:_Dropout_2 (13,283,681 us., 0.19%)</title><rect x="848.7" y="197" width="2.2" height="15.0" fill="rgb(215,214,30)" rx="2" ry="2" />
<text  x="851.69" y="207.5" ></text>
</g>
<g >
<title>&lt;built-in_function_loads&gt; (642,817 us., 0.01%)</title><rect x="150.5" y="133" width="0.1" height="15.0" fill="rgb(206,45,44)" rx="2" ry="2" />
<text  x="153.47" y="143.5" ></text>
</g>
<g >
<title>nn.Module:_Linear_3 (36,360,294 us., 0.52%)</title><rect x="835.1" y="197" width="6.1" height="15.0" fill="rgb(253,121,19)" rx="2" ry="2" />
<text  x="838.11" y="207.5" ></text>
</g>
<g >
<title>dgl/nn/pytorch/conv/sageconv.py(170):_forward (2,534,307,056 us., 36.02%)</title><rect x="184.1" y="213" width="425.1" height="15.0" fill="rgb(230,197,47)" rx="2" ry="2" />
<text  x="187.08" y="223.5" >dgl/nn/pytorch/conv/sageconv.py(170):_forward</text>
</g>
<g >
<title>&lt;built-in_method_relu_of_type_object_at_0x7f51fbf6ab00&gt; (286,652,196 us., 4.07%)</title><rect x="852.7" y="213" width="48.1" height="15.0" fill="rgb(249,9,16)" rx="2" ry="2" />
<text  x="855.71" y="223.5" >&lt;bui..</text>
</g>
<g >
<title>nn.Module:_Linear_7 (1,834,929 us., 0.03%)</title><rect x="851.8" y="197" width="0.3" height="15.0" fill="rgb(230,69,6)" rx="2" ry="2" />
<text  x="854.83" y="207.5" ></text>
</g>
<g >
<title>nn.Module:_Sequential_0 (6,951,698 us., 0.10%)</title><rect x="851.5" y="229" width="1.2" height="15.0" fill="rgb(252,6,8)" rx="2" ry="2" />
<text  x="854.54" y="239.5" ></text>
</g>
<g >
<title>&lt;built-in_method_relu_of_type_object_at_0x7f51fbf6ab00&gt; (678,238 us., 0.01%)</title><rect x="852.6" y="149" width="0.1" height="15.0" fill="rgb(248,14,47)" rx="2" ry="2" />
<text  x="855.59" y="159.5" ></text>
</g>
<g >
<title>dgl/backend/pytorch/tensor.py(237):_gather_row (189,191,653 us., 2.69%)</title><rect x="150.6" y="213" width="31.7" height="15.0" fill="rgb(219,229,22)" rx="2" ry="2" />
<text  x="153.59" y="223.5" >dg..</text>
</g>
<g >
<title>&lt;built-in_method__record_function_enter_of_PyCapsule_object_at_0x7f51e6389ba0&gt; (837,131,821 us., 11.90%)</title><rect x="10.1" y="165" width="140.4" height="15.0" fill="rgb(233,193,13)" rx="2" ry="2" />
<text  x="13.06" y="175.5" >&lt;built-in_method_..</text>
</g>
<g >
<title>dgl/heterograph.py(4685):_update_all (1,182,620,118 us., 16.81%)</title><rect x="611.1" y="197" width="198.4" height="15.0" fill="rgb(247,196,9)" rx="2" ry="2" />
<text  x="614.10" y="207.5" >dgl/heterograph.py(4685):_..</text>
</g>
<g >
<title>torch/_tensor.py(429):_backward (610,451,364 us., 8.68%)</title><rect x="900.8" y="261" width="102.4" height="15.0" fill="rgb(253,69,39)" rx="2" ry="2" />
<text  x="903.78" y="271.5" >torch/_tenso..</text>
</g>
<g >
<title>nn.Module:_ReLU_0 (669,901 us., 0.01%)</title><rect x="852.5" y="197" width="0.1" height="15.0" fill="rgb(208,26,17)" rx="2" ry="2" />
<text  x="855.48" y="207.5" ></text>
</g>
<g >
<title>&lt;built-in_method_zeros_of_type_object_at_0x7f51fbf6ab00&gt; (12,928,199 us., 0.18%)</title><rect x="804.9" y="37" width="2.2" height="15.0" fill="rgb(224,137,49)" rx="2" ry="2" />
<text  x="807.93" y="47.5" ></text>
</g>
<g >
<title>dgl/view.py(46):___call__ (1,416,837 us., 0.02%)</title><rect x="543.0" y="101" width="0.3" height="15.0" fill="rgb(245,2,34)" rx="2" ry="2" />
<text  x="546.05" y="111.5" ></text>
</g>
<g >
<title>&lt;built-in_function_linear&gt; (1,749,639 us., 0.02%)</title><rect x="851.5" y="165" width="0.3" height="15.0" fill="rgb(245,93,24)" rx="2" ry="2" />
<text  x="854.54" y="175.5" ></text>
</g>
<g >
<title>torch/_ops.py(437):___call__ (1,276,994 us., 0.02%)</title><rect x="1003.2" y="229" width="0.2" height="15.0" fill="rgb(242,214,39)" rx="2" ry="2" />
<text  x="1006.23" y="239.5" ></text>
</g>
<g >
<title>dgl/nn/pytorch/conv/sageconv.py(170):_forward (1,383,526,326 us., 19.67%)</title><rect x="609.2" y="213" width="232.0" height="15.0" fill="rgb(231,150,33)" rx="2" ry="2" />
<text  x="612.15" y="223.5" >dgl/nn/pytorch/conv/sageconv.p..</text>
</g>
<g >
<title>dgl/_sparse_ops.py(156):__gspmm (12,959,082 us., 0.18%)</title><rect x="804.9" y="69" width="2.2" height="15.0" fill="rgb(214,117,43)" rx="2" ry="2" />
<text  x="807.93" y="79.5" ></text>
</g>
<g >
<title>dgl/backend/pytorch/tensor.py(367):_clamp (2,512,251 us., 0.04%)</title><rect x="542.6" y="117" width="0.4" height="15.0" fill="rgb(230,211,26)" rx="2" ry="2" />
<text  x="545.61" y="127.5" ></text>
</g>
<g >
<title>torch/nn/modules/linear.py(113):_forward (168,012,359 us., 2.39%)</title><rect x="543.3" y="181" width="28.2" height="15.0" fill="rgb(207,33,16)" rx="2" ry="2" />
<text  x="546.29" y="191.5" >t..</text>
</g>
<g >
<title>&lt;built-in_function_linear&gt; (224,685,783 us., 3.19%)</title><rect x="571.5" y="165" width="37.7" height="15.0" fill="rgb(209,13,27)" rx="2" ry="2" />
<text  x="574.47" y="175.5" >&lt;bu..</text>
</g>
<g >
<title>link.py(50):_forward (4,283,566,227 us., 60.89%)</title><rect x="182.3" y="245" width="718.5" height="15.0" fill="rgb(239,171,8)" rx="2" ry="2" />
<text  x="185.32" y="255.5" >link.py(50):_forward</text>
</g>
<g >
<title>&lt;built-in_function_linear&gt; (1,835,825 us., 0.03%)</title><rect x="851.2" y="165" width="0.3" height="15.0" fill="rgb(231,169,35)" rx="2" ry="2" />
<text  x="854.23" y="175.5" ></text>
</g>
<g >
<title>torch/nn/modules/linear.py(113):_forward (1,834,929 us., 0.03%)</title><rect x="851.8" y="181" width="0.3" height="15.0" fill="rgb(206,211,52)" rx="2" ry="2" />
<text  x="854.83" y="191.5" ></text>
</g>
<g >
<title>&lt;built-in_method_apply_of_FunctionMeta_object_at_0x546c830&gt; (1,145,680,786 us., 16.28%)</title><rect x="614.9" y="101" width="192.2" height="15.0" fill="rgb(222,164,15)" rx="2" ry="2" />
<text  x="617.94" y="111.5" >&lt;built-in_method_apply_of..</text>
</g>
<g >
<title>torch/autograd/profiler.py(487):___enter__ (1,109,590,294 us., 15.77%)</title><rect x="1003.9" y="277" width="186.1" height="15.0" fill="rgb(234,95,13)" rx="2" ry="2" />
<text  x="1006.89" y="287.5" >torch/autograd/profiler...</text>
</g>
<g >
<title>torch/optim/optimizer.py(19):__use_grad (2,215,084 us., 0.03%)</title><rect x="1003.4" y="245" width="0.4" height="15.0" fill="rgb(210,92,27)" rx="2" ry="2" />
<text  x="1006.45" y="255.5" ></text>
</g>
<g >
<title>torch/nn/modules/dropout.py(58):_forward (119,711,973 us., 1.70%)</title><rect x="809.5" y="181" width="20.0" height="15.0" fill="rgb(240,97,18)" rx="2" ry="2" />
<text  x="812.46" y="191.5" ></text>
</g>
<g >
<title>torch/nn/functional.py(1446):_relu (669,901 us., 0.01%)</title><rect x="852.5" y="165" width="0.1" height="15.0" fill="rgb(233,101,5)" rx="2" ry="2" />
<text  x="855.48" y="175.5" ></text>
</g>
<g >
<title>link.py(111):_train (5,925,713,221 us., 84.23%)</title><rect x="10.0" y="277" width="993.9" height="15.0" fill="rgb(244,60,40)" rx="2" ry="2" />
<text  x="13.00" y="287.5" >link.py(111):_train</text>
</g>
<g >
<title>dgl/heterograph_index.py(651):_in_degrees (12,523,984 us., 0.18%)</title><rect x="807.3" y="101" width="2.1" height="15.0" fill="rgb(238,103,13)" rx="2" ry="2" />
<text  x="810.29" y="111.5" ></text>
</g>
<g >
<title>nn.Module:_Linear_4 (1,883,320 us., 0.03%)</title><rect x="850.9" y="197" width="0.3" height="15.0" fill="rgb(234,203,25)" rx="2" ry="2" />
<text  x="853.92" y="207.5" ></text>
</g>
<g >
<title>nn.Module:_ReLU_1 (678,238 us., 0.01%)</title><rect x="852.6" y="197" width="0.1" height="15.0" fill="rgb(235,94,21)" rx="2" ry="2" />
<text  x="855.59" y="207.5" ></text>
</g>
<g >
<title>torch/nn/modules/linear.py(113):_forward (36,360,294 us., 0.52%)</title><rect x="835.1" y="181" width="6.1" height="15.0" fill="rgb(251,30,17)" rx="2" ry="2" />
<text  x="838.11" y="191.5" ></text>
</g>
<g >
<title>torch/nn/modules/dropout.py(58):_forward (13,283,681 us., 0.19%)</title><rect x="848.7" y="181" width="2.2" height="15.0" fill="rgb(220,204,12)" rx="2" ry="2" />
<text  x="851.69" y="191.5" ></text>
</g>
<g >
<title>dgl/core.py(303):_invoke_gspmm (1,182,620,118 us., 16.81%)</title><rect x="611.1" y="165" width="198.4" height="15.0" fill="rgb(237,201,5)" rx="2" ry="2" />
<text  x="614.10" y="175.5" >dgl/core.py(303):_invoke_g..</text>
</g>
<g >
<title>dgl/backend/pytorch/tensor.py(124):_astype (2,908,318 us., 0.04%)</title><rect x="542.1" y="117" width="0.5" height="15.0" fill="rgb(240,187,8)" rx="2" ry="2" />
<text  x="545.12" y="127.5" ></text>
</g>
<g >
<title>dgl/ops/spmm.py(213):_func (2,049,086,072 us., 29.13%)</title><rect x="199.6" y="149" width="343.7" height="15.0" fill="rgb(243,72,53)" rx="2" ry="2" />
<text  x="202.60" y="159.5" >dgl/ops/spmm.py(213):_func</text>
</g>
<g >
<title>nn.Module:_Linear_6 (1,749,639 us., 0.02%)</title><rect x="851.5" y="197" width="0.3" height="15.0" fill="rgb(212,110,31)" rx="2" ry="2" />
<text  x="854.54" y="207.5" ></text>
</g>
<g >
<title>nn.Module:_Linear_5 (1,835,825 us., 0.03%)</title><rect x="851.2" y="197" width="0.3" height="15.0" fill="rgb(206,72,24)" rx="2" ry="2" />
<text  x="854.23" y="207.5" ></text>
</g>
<g >
<title>dgl/core.py(303):_invoke_gspmm (44,111,642 us., 0.63%)</title><rect x="841.3" y="165" width="7.4" height="15.0" fill="rgb(244,217,3)" rx="2" ry="2" />
<text  x="844.29" y="175.5" ></text>
</g>
<g >
<title>&lt;built-in_method_run_backward_of_torch._C._EngineBase_object_at_0x7f51ecd21940&gt; (610,422,523 us., 8.68%)</title><rect x="900.8" y="245" width="102.4" height="15.0" fill="rgb(209,26,28)" rx="2" ry="2" />
<text  x="903.79" y="255.5" >&lt;built-in_me..</text>
</g>
<g >
<title>&lt;built-in_method__record_function_enter_of_PyCapsule_object_at_0x7f51e6389ba0&gt; (1,276,994 us., 0.02%)</title><rect x="1003.2" y="213" width="0.2" height="15.0" fill="rgb(216,219,19)" rx="2" ry="2" />
<text  x="1006.23" y="223.5" ></text>
</g>
<g >
<title>&lt;built-in_method_index_select_of_type_object_at_0x7f51fbf6ab00&gt; (189,187,399 us., 2.69%)</title><rect x="150.6" y="197" width="31.7" height="15.0" fill="rgb(220,20,47)" rx="2" ry="2" />
<text  x="153.59" y="207.5" >&lt;b..</text>
</g>
</g>
</svg>
