<?xml version="1.0" standalone="no"?>
<!DOCTYPE svg PUBLIC "-//W3C//DTD SVG 1.1//EN" "http://www.w3.org/Graphics/SVG/1.1/DTD/svg11.dtd">
<svg version="1.1" width="1200" height="358" onload="init(evt)" viewBox="0 0 1200 358" xmlns="http://www.w3.org/2000/svg" xmlns:xlink="http://www.w3.org/1999/xlink">
<!-- Flame graph stack visualization. See https://github.com/brendangregg/FlameGraph for latest version, and http://www.brendangregg.com/flamegraphs.html for examples. -->
<!-- NOTES:  -->
<defs>
	<linearGradient id="background" y1="0" y2="1" x1="0" x2="0" >
		<stop stop-color="#eeeeee" offset="5%" />
		<stop stop-color="#eeeeb0" offset="95%" />
	</linearGradient>
</defs>
<style type="text/css">
	text { font-family:Verdana; font-size:12px; fill:rgb(0,0,0); }
	#search, #ignorecase { opacity:0.1; cursor:pointer; }
	#search:hover, #search.show, #ignorecase:hover, #ignorecase.show { opacity:1; }
	#subtitle { text-anchor:middle; font-color:rgb(160,160,160); }
	#title { text-anchor:middle; font-size:17px}
	#unzoom { cursor:pointer; }
	#frames > *:hover { stroke:black; stroke-width:0.5; cursor:pointer; }
	.hide { display:none; }
	.parent { opacity:0.5; }
</style>
<script type="text/ecmascript">
<![CDATA[
	"use strict";
	var details, searchbtn, unzoombtn, matchedtxt, svg, searching, currentSearchTerm, ignorecase, ignorecaseBtn;
	function init(evt) {
		details = document.getElementById("details").firstChild;
		searchbtn = document.getElementById("search");
		ignorecaseBtn = document.getElementById("ignorecase");
		unzoombtn = document.getElementById("unzoom");
		matchedtxt = document.getElementById("matched");
		svg = document.getElementsByTagName("svg")[0];
		searching = 0;
		currentSearchTerm = null;

		// use GET parameters to restore a flamegraphs state.
		var params = get_params();
		if (params.x && params.y)
			zoom(find_group(document.querySelector('[x="' + params.x + '"][y="' + params.y + '"]')));
                if (params.s) search(params.s);
	}

	// event listeners
	window.addEventListener("click", function(e) {
		var target = find_group(e.target);
		if (target) {
			if (target.nodeName == "a") {
				if (e.ctrlKey === false) return;
				e.preventDefault();
			}
			if (target.classList.contains("parent")) unzoom(true);
			zoom(target);
			if (!document.querySelector('.parent')) {
				// we have basically done a clearzoom so clear the url
				var params = get_params();
				if (params.x) delete params.x;
				if (params.y) delete params.y;
				history.replaceState(null, null, parse_params(params));
				unzoombtn.classList.add("hide");
				return;
			}

			// set parameters for zoom state
			var el = target.querySelector("rect");
			if (el && el.attributes && el.attributes.y && el.attributes._orig_x) {
				var params = get_params()
				params.x = el.attributes._orig_x.value;
				params.y = el.attributes.y.value;
				history.replaceState(null, null, parse_params(params));
			}
		}
		else if (e.target.id == "unzoom") clearzoom();
		else if (e.target.id == "search") search_prompt();
		else if (e.target.id == "ignorecase") toggle_ignorecase();
	}, false)

	// mouse-over for info
	// show
	window.addEventListener("mouseover", function(e) {
		var target = find_group(e.target);
		if (target) details.nodeValue = "Function: " + g_to_text(target);
	}, false)

	// clear
	window.addEventListener("mouseout", function(e) {
		var target = find_group(e.target);
		if (target) details.nodeValue = ' ';
	}, false)

	// ctrl-F for search
	// ctrl-I to toggle case-sensitive search
	window.addEventListener("keydown",function (e) {
		if (e.keyCode === 114 || (e.ctrlKey && e.keyCode === 70)) {
			e.preventDefault();
			search_prompt();
		}
		else if (e.ctrlKey && e.keyCode === 73) {
			e.preventDefault();
			toggle_ignorecase();
		}
	}, false)

	// functions
	function get_params() {
		var params = {};
		var paramsarr = window.location.search.substr(1).split('&');
		for (var i = 0; i < paramsarr.length; ++i) {
			var tmp = paramsarr[i].split("=");
			if (!tmp[0] || !tmp[1]) continue;
			params[tmp[0]]  = decodeURIComponent(tmp[1]);
		}
		return params;
	}
	function parse_params(params) {
		var uri = "?";
		for (var key in params) {
			uri += key + '=' + encodeURIComponent(params[key]) + '&';
		}
		if (uri.slice(-1) == "&")
			uri = uri.substring(0, uri.length - 1);
		if (uri == '?')
			uri = window.location.href.split('?')[0];
		return uri;
	}
	function find_child(node, selector) {
		var children = node.querySelectorAll(selector);
		if (children.length) return children[0];
	}
	function find_group(node) {
		var parent = node.parentElement;
		if (!parent) return;
		if (parent.id == "frames") return node;
		return find_group(parent);
	}
	function orig_save(e, attr, val) {
		if (e.attributes["_orig_" + attr] != undefined) return;
		if (e.attributes[attr] == undefined) return;
		if (val == undefined) val = e.attributes[attr].value;
		e.setAttribute("_orig_" + attr, val);
	}
	function orig_load(e, attr) {
		if (e.attributes["_orig_"+attr] == undefined) return;
		e.attributes[attr].value = e.attributes["_orig_" + attr].value;
		e.removeAttribute("_orig_"+attr);
	}
	function g_to_text(e) {
		var text = find_child(e, "title").firstChild.nodeValue;
		return (text)
	}
	function g_to_func(e) {
		var func = g_to_text(e);
		// if there's any manipulation we want to do to the function
		// name before it's searched, do it here before returning.
		return (func);
	}
	function update_text(e) {
		var r = find_child(e, "rect");
		var t = find_child(e, "text");
		var w = parseFloat(r.attributes.width.value) -3;
		var txt = find_child(e, "title").textContent.replace(/\([^(]*\)$/,"");
		t.attributes.x.value = parseFloat(r.attributes.x.value) + 3;

		// Smaller than this size won't fit anything
		if (w < 2 * 12 * 0.59) {
			t.textContent = "";
			return;
		}

		t.textContent = txt;
		var sl = t.getSubStringLength(0, txt.length);
		// check if only whitespace or if we can fit the entire string into width w
		if (/^ *$/.test(txt) || sl < w)
			return;

		// this isn't perfect, but gives a good starting point
		// and avoids calling getSubStringLength too often
		var start = Math.floor((w/sl) * txt.length);
		for (var x = start; x > 0; x = x-2) {
			if (t.getSubStringLength(0, x + 2) <= w) {
				t.textContent = txt.substring(0, x) + "..";
				return;
			}
		}
		t.textContent = "";
	}

	// zoom
	function zoom_reset(e) {
		if (e.attributes != undefined) {
			orig_load(e, "x");
			orig_load(e, "width");
		}
		if (e.childNodes == undefined) return;
		for (var i = 0, c = e.childNodes; i < c.length; i++) {
			zoom_reset(c[i]);
		}
	}
	function zoom_child(e, x, ratio) {
		if (e.attributes != undefined) {
			if (e.attributes.x != undefined) {
				orig_save(e, "x");
				e.attributes.x.value = (parseFloat(e.attributes.x.value) - x - 10) * ratio + 10;
				if (e.tagName == "text")
					e.attributes.x.value = find_child(e.parentNode, "rect[x]").attributes.x.value + 3;
			}
			if (e.attributes.width != undefined) {
				orig_save(e, "width");
				e.attributes.width.value = parseFloat(e.attributes.width.value) * ratio;
			}
		}

		if (e.childNodes == undefined) return;
		for (var i = 0, c = e.childNodes; i < c.length; i++) {
			zoom_child(c[i], x - 10, ratio);
		}
	}
	function zoom_parent(e) {
		if (e.attributes) {
			if (e.attributes.x != undefined) {
				orig_save(e, "x");
				e.attributes.x.value = 10;
			}
			if (e.attributes.width != undefined) {
				orig_save(e, "width");
				e.attributes.width.value = parseInt(svg.width.baseVal.value) - (10 * 2);
			}
		}
		if (e.childNodes == undefined) return;
		for (var i = 0, c = e.childNodes; i < c.length; i++) {
			zoom_parent(c[i]);
		}
	}
	function zoom(node) {
		var attr = find_child(node, "rect").attributes;
		var width = parseFloat(attr.width.value);
		var xmin = parseFloat(attr.x.value);
		var xmax = parseFloat(xmin + width);
		var ymin = parseFloat(attr.y.value);
		var ratio = (svg.width.baseVal.value - 2 * 10) / width;

		// XXX: Workaround for JavaScript float issues (fix me)
		var fudge = 0.0001;

		unzoombtn.classList.remove("hide");

		var el = document.getElementById("frames").children;
		for (var i = 0; i < el.length; i++) {
			var e = el[i];
			var a = find_child(e, "rect").attributes;
			var ex = parseFloat(a.x.value);
			var ew = parseFloat(a.width.value);
			var upstack;
			// Is it an ancestor
			if (0 == 0) {
				upstack = parseFloat(a.y.value) > ymin;
			} else {
				upstack = parseFloat(a.y.value) < ymin;
			}
			if (upstack) {
				// Direct ancestor
				if (ex <= xmin && (ex+ew+fudge) >= xmax) {
					e.classList.add("parent");
					zoom_parent(e);
					update_text(e);
				}
				// not in current path
				else
					e.classList.add("hide");
			}
			// Children maybe
			else {
				// no common path
				if (ex < xmin || ex + fudge >= xmax) {
					e.classList.add("hide");
				}
				else {
					zoom_child(e, xmin, ratio);
					update_text(e);
				}
			}
		}
		search();
	}
	function unzoom(dont_update_text) {
		unzoombtn.classList.add("hide");
		var el = document.getElementById("frames").children;
		for(var i = 0; i < el.length; i++) {
			el[i].classList.remove("parent");
			el[i].classList.remove("hide");
			zoom_reset(el[i]);
			if(!dont_update_text) update_text(el[i]);
		}
		search();
	}
	function clearzoom() {
		unzoom();

		// remove zoom state
		var params = get_params();
		if (params.x) delete params.x;
		if (params.y) delete params.y;
		history.replaceState(null, null, parse_params(params));
	}

	// search
	function toggle_ignorecase() {
		ignorecase = !ignorecase;
		if (ignorecase) {
			ignorecaseBtn.classList.add("show");
		} else {
			ignorecaseBtn.classList.remove("show");
		}
		reset_search();
		search();
	}
	function reset_search() {
		var el = document.querySelectorAll("#frames rect");
		for (var i = 0; i < el.length; i++) {
			orig_load(el[i], "fill")
		}
		var params = get_params();
		delete params.s;
		history.replaceState(null, null, parse_params(params));
	}
	function search_prompt() {
		if (!searching) {
			var term = prompt("Enter a search term (regexp " +
			    "allowed, eg: ^ext4_)"
			    + (ignorecase ? ", ignoring case" : "")
			    + "\nPress Ctrl-i to toggle case sensitivity", "");
			if (term != null) search(term);
		} else {
			reset_search();
			searching = 0;
			currentSearchTerm = null;
			searchbtn.classList.remove("show");
			searchbtn.firstChild.nodeValue = "Search"
			matchedtxt.classList.add("hide");
			matchedtxt.firstChild.nodeValue = ""
		}
	}
	function search(term) {
		if (term) currentSearchTerm = term;

		var re = new RegExp(currentSearchTerm, ignorecase ? 'i' : '');
		var el = document.getElementById("frames").children;
		var matches = new Object();
		var maxwidth = 0;
		for (var i = 0; i < el.length; i++) {
			var e = el[i];
			var func = g_to_func(e);
			var rect = find_child(e, "rect");
			if (func == null || rect == null)
				continue;

			// Save max width. Only works as we have a root frame
			var w = parseFloat(rect.attributes.width.value);
			if (w > maxwidth)
				maxwidth = w;

			if (func.match(re)) {
				// highlight
				var x = parseFloat(rect.attributes.x.value);
				orig_save(rect, "fill");
				rect.attributes.fill.value = "rgb(230,0,230)";

				// remember matches
				if (matches[x] == undefined) {
					matches[x] = w;
				} else {
					if (w > matches[x]) {
						// overwrite with parent
						matches[x] = w;
					}
				}
				searching = 1;
			}
		}
		if (!searching)
			return;
		var params = get_params();
		params.s = currentSearchTerm;
		history.replaceState(null, null, parse_params(params));

		searchbtn.classList.add("show");
		searchbtn.firstChild.nodeValue = "Reset Search";

		// calculate percent matched, excluding vertical overlap
		var count = 0;
		var lastx = -1;
		var lastw = 0;
		var keys = Array();
		for (k in matches) {
			if (matches.hasOwnProperty(k))
				keys.push(k);
		}
		// sort the matched frames by their x location
		// ascending, then width descending
		keys.sort(function(a, b){
			return a - b;
		});
		// Step through frames saving only the biggest bottom-up frames
		// thanks to the sort order. This relies on the tree property
		// where children are always smaller than their parents.
		var fudge = 0.0001;	// JavaScript floating point
		for (var k in keys) {
			var x = parseFloat(keys[k]);
			var w = matches[keys[k]];
			if (x >= lastx + lastw - fudge) {
				count += w;
				lastx = x;
				lastw = w;
			}
		}
		// display matched percent
		matchedtxt.classList.remove("hide");
		var pct = 100 * count / maxwidth;
		if (pct != 100) pct = pct.toFixed(1)
		matchedtxt.firstChild.nodeValue = "Matched: " + pct + "%";
	}
]]>
</script>
<rect x="0.0" y="0" width="1200.0" height="358.0" fill="url(#background)"  />
<text id="title" x="600.00" y="24" >ogbn-citation/full-graph/gcn</text>
<text id="details" x="10.00" y="341" > </text>
<text id="unzoom" x="10.00" y="24" class="hide">Reset Zoom</text>
<text id="search" x="1090.00" y="24" >Search</text>
<text id="ignorecase" x="1174.00" y="24" >ic</text>
<text id="matched" x="1090.00" y="341" > </text>
<g id="frames">
<g >
<title>&lt;built-in_method_apply_of_FunctionMeta_object_at_0x53b7b00&gt; (966,571,284 us., 13.45%)</title><rect x="575.3" y="101" width="158.7" height="15.0" fill="rgb(242,19,19)" rx="2" ry="2" />
<text  x="578.30" y="111.5" >&lt;built-in_method_app..</text>
</g>
<g >
<title>dgl/backend/pytorch/tensor.py(184):_min (123,021,522 us., 1.71%)</title><rect x="554.9" y="165" width="20.2" height="15.0" fill="rgb(223,27,33)" rx="2" ry="2" />
<text  x="557.90" y="175.5" ></text>
</g>
<g >
<title>torch/autograd/profiler.py(487):___enter__ (1,891,523,455 us., 26.32%)</title><rect x="879.5" y="277" width="310.5" height="15.0" fill="rgb(246,210,23)" rx="2" ry="2" />
<text  x="882.48" y="287.5" >torch/autograd/profiler.py(487):___enter__</text>
</g>
<g >
<title>nn.Module:_ReLU_0 (640,499 us., 0.01%)</title><rect x="747.0" y="197" width="0.1" height="15.0" fill="rgb(211,134,45)" rx="2" ry="2" />
<text  x="750.03" y="207.5" ></text>
</g>
<g >
<title>link_gcn.py(111):_train (5,296,377,294 us., 73.68%)</title><rect x="10.0" y="277" width="869.5" height="15.0" fill="rgb(220,42,35)" rx="2" ry="2" />
<text  x="13.00" y="287.5" >link_gcn.py(111):_train</text>
</g>
<g >
<title>dgl/heterograph.py(3441):_out_degrees (14,182,540 us., 0.20%)</title><rect x="218.5" y="197" width="2.3" height="15.0" fill="rgb(227,104,3)" rx="2" ry="2" />
<text  x="221.46" y="207.5" ></text>
</g>
<g >
<title>torch/nn/modules/linear.py(113):_forward (1,900,382 us., 0.03%)</title><rect x="746.1" y="181" width="0.3" height="15.0" fill="rgb(228,157,0)" rx="2" ry="2" />
<text  x="749.06" y="191.5" ></text>
</g>
<g >
<title>link_gcn.py(50):_forward (4,155,355,785 us., 57.81%)</title><rect x="107.9" y="245" width="682.1" height="15.0" fill="rgb(215,108,44)" rx="2" ry="2" />
<text  x="110.88" y="255.5" >link_gcn.py(50):_forward</text>
</g>
<g >
<title>dgl/heterograph.py(4685):_update_all (1,831,840,794 us., 25.49%)</title><rect x="220.8" y="197" width="300.7" height="15.0" fill="rgb(212,194,36)" rx="2" ry="2" />
<text  x="223.79" y="207.5" >dgl/heterograph.py(4685):_update_all</text>
</g>
<g >
<title>dgl/backend/pytorch/sparse.py(1023):_gspmm (1,831,840,794 us., 25.49%)</title><rect x="220.8" y="117" width="300.7" height="15.0" fill="rgb(241,91,41)" rx="2" ry="2" />
<text  x="223.79" y="127.5" >dgl/backend/pytorch/sparse.py(1023):_gspmm</text>
</g>
<g >
<title>&lt;built-in_method_zeros_of_type_object_at_0x7f467ee64b00&gt; (75,958,478 us., 1.06%)</title><rect x="509.0" y="37" width="12.5" height="15.0" fill="rgb(243,36,20)" rx="2" ry="2" />
<text  x="512.04" y="47.5" ></text>
</g>
<g >
<title>torch/optim/adam.py(319):__single_tensor_adam (1,593,287 us., 0.02%)</title><rect x="879.1" y="197" width="0.3" height="15.0" fill="rgb(239,123,45)" rx="2" ry="2" />
<text  x="882.15" y="207.5" ></text>
</g>
<g >
<title>dgl/backend/pytorch/tensor.py(401):_arange (1,209,194 us., 0.02%)</title><rect x="575.1" y="165" width="0.2" height="15.0" fill="rgb(223,48,0)" rx="2" ry="2" />
<text  x="578.10" y="175.5" ></text>
</g>
<g >
<title>all (7,187,900,792 us., 100%)</title><rect x="10.0" y="309" width="1180.0" height="15.0" fill="rgb(233,142,30)" rx="2" ry="2" />
<text  x="13.00" y="319.5" ></text>
</g>
<g >
<title>dgl/core.py(303):_invoke_gspmm (1,831,840,794 us., 25.49%)</title><rect x="220.8" y="165" width="300.7" height="15.0" fill="rgb(245,190,31)" rx="2" ry="2" />
<text  x="223.79" y="175.5" >dgl/core.py(303):_invoke_gspmm</text>
</g>
<g >
<title>torch/optim/optimizer.py(135):_wrapper (2,689,873 us., 0.04%)</title><rect x="879.0" y="261" width="0.4" height="15.0" fill="rgb(235,168,35)" rx="2" ry="2" />
<text  x="881.97" y="271.5" ></text>
</g>
<g >
<title>torch/nn/functional.py(1446):_relu (739,654 us., 0.01%)</title><rect x="747.1" y="165" width="0.2" height="15.0" fill="rgb(208,201,51)" rx="2" ry="2" />
<text  x="750.14" y="175.5" ></text>
</g>
<g >
<title>link_gcn.py(175):_&lt;module&gt; (7,187,900,792 us., 100.00%)</title><rect x="10.0" y="293" width="1180.0" height="15.0" fill="rgb(216,165,16)" rx="2" ry="2" />
<text  x="13.00" y="303.5" >link_gcn.py(175):_&lt;module&gt;</text>
</g>
<g >
<title>dgl/heterograph.py(3441):_out_degrees (125,732,478 us., 1.75%)</title><rect x="554.7" y="197" width="20.6" height="15.0" fill="rgb(211,122,39)" rx="2" ry="2" />
<text  x="557.66" y="207.5" ></text>
</g>
<g >
<title>dgl/backend/__init__.py(141):_to_dgl_nd (123,812,035 us., 1.72%)</title><rect x="198.0" y="165" width="20.3" height="15.0" fill="rgb(238,45,10)" rx="2" ry="2" />
<text  x="200.99" y="175.5" ></text>
</g>
<g >
<title>dgl/dataloading/dataloader.py(492):__next_non_threaded (411,800,767 us., 5.73%)</title><rect x="10.1" y="245" width="67.6" height="15.0" fill="rgb(233,112,8)" rx="2" ry="2" />
<text  x="13.06" y="255.5" >dgl/dat..</text>
</g>
<g >
<title>&lt;built-in_method_index_select_of_type_object_at_0x7f467ee64b00&gt; (184,023,149 us., 2.56%)</title><rect x="77.7" y="197" width="30.2" height="15.0" fill="rgb(239,123,40)" rx="2" ry="2" />
<text  x="80.67" y="207.5" >&lt;b..</text>
</g>
<g >
<title>dgl/core.py(364):_message_passing (1,831,840,794 us., 25.49%)</title><rect x="220.8" y="181" width="300.7" height="15.0" fill="rgb(230,58,23)" rx="2" ry="2" />
<text  x="223.79" y="191.5" >dgl/core.py(364):_message_passing</text>
</g>
<g >
<title>dgl/backend/pytorch/sparse.py(163):_forward (75,986,994 us., 1.06%)</title><rect x="509.0" y="85" width="12.5" height="15.0" fill="rgb(212,137,48)" rx="2" ry="2" />
<text  x="512.03" y="95.5" ></text>
</g>
<g >
<title>torch/autograd/profiler.py(487):___enter__ (1,060,135 us., 0.01%)</title><rect x="879.0" y="245" width="0.1" height="15.0" fill="rgb(220,39,23)" rx="2" ry="2" />
<text  x="881.97" y="255.5" ></text>
</g>
<g >
<title>dgl/ops/spmm.py(37):_gspmm (39,627,359 us., 0.55%)</title><rect x="739.5" y="133" width="6.5" height="15.0" fill="rgb(231,164,45)" rx="2" ry="2" />
<text  x="742.54" y="143.5" ></text>
</g>
<g >
<title>&lt;built-in_method_arange_of_type_object_at_0x7f467ee64b00&gt; (835,499 us., 0.01%)</title><rect x="218.3" y="149" width="0.2" height="15.0" fill="rgb(214,13,40)" rx="2" ry="2" />
<text  x="221.32" y="159.5" ></text>
</g>
<g >
<title>&lt;built-in_method_clamp_of_Tensor_object_at_0x7f459c0956d0&gt; (1,282,704 us., 0.02%)</title><rect x="543.1" y="197" width="0.2" height="15.0" fill="rgb(234,134,5)" rx="2" ry="2" />
<text  x="546.12" y="207.5" ></text>
</g>
<g >
<title>torch/autograd/profiler.py(487):___enter__ (411,300,574 us., 5.72%)</title><rect x="10.1" y="197" width="67.5" height="15.0" fill="rgb(232,191,45)" rx="2" ry="2" />
<text  x="13.06" y="207.5" >torch/a..</text>
</g>
<g >
<title>nn.Module:_ReLU_1 (739,654 us., 0.01%)</title><rect x="747.1" y="197" width="0.2" height="15.0" fill="rgb(254,85,46)" rx="2" ry="2" />
<text  x="750.14" y="207.5" ></text>
</g>
<g >
<title>dgl/backend/pytorch/tensor.py(282):_zeros (75,958,478 us., 1.06%)</title><rect x="509.0" y="53" width="12.5" height="15.0" fill="rgb(236,146,20)" rx="2" ry="2" />
<text  x="512.04" y="63.5" ></text>
</g>
<g >
<title>torch/nn/modules/activation.py(101):_forward (739,654 us., 0.01%)</title><rect x="747.1" y="181" width="0.2" height="15.0" fill="rgb(239,201,47)" rx="2" ry="2" />
<text  x="750.14" y="191.5" ></text>
</g>
<g >
<title>dgl/view.py(46):___call__ (835,499 us., 0.01%)</title><rect x="218.3" y="181" width="0.2" height="15.0" fill="rgb(207,132,11)" rx="2" ry="2" />
<text  x="221.32" y="191.5" ></text>
</g>
<g >
<title>dgl/core.py(364):_message_passing (966,571,284 us., 13.45%)</title><rect x="575.3" y="181" width="158.7" height="15.0" fill="rgb(253,172,2)" rx="2" ry="2" />
<text  x="578.30" y="191.5" >dgl/core.py(364):_me..</text>
</g>
<g >
<title>dgl/heterograph.py(2663):_has_nodes (15,443,501 us., 0.21%)</title><rect x="736.9" y="181" width="2.6" height="15.0" fill="rgb(237,97,51)" rx="2" ry="2" />
<text  x="739.95" y="191.5" ></text>
</g>
<g >
<title>dgl/backend/pytorch/tensor.py(401):_arange (835,499 us., 0.01%)</title><rect x="218.3" y="165" width="0.2" height="15.0" fill="rgb(212,193,12)" rx="2" ry="2" />
<text  x="221.32" y="175.5" ></text>
</g>
<g >
<title>torch/nn/functional.py(1446):_relu (640,499 us., 0.01%)</title><rect x="747.0" y="165" width="0.1" height="15.0" fill="rgb(221,56,7)" rx="2" ry="2" />
<text  x="750.03" y="175.5" ></text>
</g>
<g >
<title>dgl/ops/spmm.py(213):_func (1,831,840,794 us., 25.49%)</title><rect x="220.8" y="149" width="300.7" height="15.0" fill="rgb(250,229,39)" rx="2" ry="2" />
<text  x="223.79" y="159.5" >dgl/ops/spmm.py(213):_func</text>
</g>
<g >
<title>&lt;built-in_method_matmul_of_type_object_at_0x7f467ee64b00&gt; (197,808,354 us., 2.75%)</title><rect x="165.0" y="197" width="32.4" height="15.0" fill="rgb(247,125,27)" rx="2" ry="2" />
<text  x="167.95" y="207.5" >&lt;b..</text>
</g>
<g >
<title>dgl/frame.py(215):_data (184,030,572 us., 2.56%)</title><rect x="77.7" y="229" width="30.2" height="15.0" fill="rgb(220,113,34)" rx="2" ry="2" />
<text  x="80.67" y="239.5" >dg..</text>
</g>
<g >
<title>&lt;built-in_method_apply_of_FunctionMeta_object_at_0x53b7b00&gt; (1,831,840,794 us., 25.49%)</title><rect x="220.8" y="101" width="300.7" height="15.0" fill="rgb(246,8,13)" rx="2" ry="2" />
<text  x="223.79" y="111.5" >&lt;built-in_method_apply_of_FunctionMeta_o..</text>
</g>
<g >
<title>nn.Module:_GraphConv_1 (1,294,234,426 us., 18.01%)</title><rect x="521.5" y="229" width="212.5" height="15.0" fill="rgb(235,2,51)" rx="2" ry="2" />
<text  x="524.52" y="239.5" >nn.Module:_GraphConv_1</text>
</g>
<g >
<title>dgl/view.py(46):___call__ (1,209,194 us., 0.02%)</title><rect x="575.1" y="181" width="0.2" height="15.0" fill="rgb(230,187,4)" rx="2" ry="2" />
<text  x="578.10" y="191.5" ></text>
</g>
<g >
<title>&lt;built-in_function_linear&gt; (2,116,490 us., 0.03%)</title><rect x="746.7" y="165" width="0.3" height="15.0" fill="rgb(218,81,10)" rx="2" ry="2" />
<text  x="749.68" y="175.5" ></text>
</g>
<g >
<title>torch/utils/data/dataloader.py(623):___next__ (411,799,653 us., 5.73%)</title><rect x="10.1" y="213" width="67.6" height="15.0" fill="rgb(219,208,8)" rx="2" ry="2" />
<text  x="13.06" y="223.5" >torch/u..</text>
</g>
<g >
<title>dgl/backend/pytorch/sparse.py(1023):_gspmm (39,627,359 us., 0.55%)</title><rect x="739.5" y="117" width="6.5" height="15.0" fill="rgb(208,211,36)" rx="2" ry="2" />
<text  x="742.54" y="127.5" ></text>
</g>
<g >
<title>dgl/heterograph_index.py(651):_in_degrees (123,812,035 us., 1.72%)</title><rect x="198.0" y="181" width="20.3" height="15.0" fill="rgb(240,9,38)" rx="2" ry="2" />
<text  x="200.99" y="191.5" ></text>
</g>
<g >
<title>nn.Module:_SAGE_0 (4,155,355,785 us., 57.81%)</title><rect x="107.9" y="261" width="682.1" height="15.0" fill="rgb(241,21,2)" rx="2" ry="2" />
<text  x="110.88" y="271.5" >nn.Module:_SAGE_0</text>
</g>
<g >
<title>&lt;built-in_method__record_function_enter_of_PyCapsule_object_at_0x7f4669283bd0&gt; (1,060,135 us., 0.01%)</title><rect x="879.0" y="213" width="0.1" height="15.0" fill="rgb(206,178,5)" rx="2" ry="2" />
<text  x="881.97" y="223.5" ></text>
</g>
<g >
<title>&lt;built-in_function_next&gt; (411,799,653 us., 5.73%)</title><rect x="10.1" y="229" width="67.6" height="15.0" fill="rgb(252,95,14)" rx="2" ry="2" />
<text  x="13.06" y="239.5" >&lt;built-..</text>
</g>
<g >
<title>torch/optim/adam.py(257):_adam (1,593,287 us., 0.02%)</title><rect x="879.1" y="213" width="0.3" height="15.0" fill="rgb(243,166,1)" rx="2" ry="2" />
<text  x="882.15" y="223.5" ></text>
</g>
<g >
<title>torch/_tensor.py(429):_backward (541,373,465 us., 7.53%)</title><rect x="790.0" y="261" width="88.9" height="15.0" fill="rgb(205,49,11)" rx="2" ry="2" />
<text  x="793.04" y="271.5" >torch/_ten..</text>
</g>
<g >
<title>dgl/frame.py(658):___getitem__ (184,030,572 us., 2.56%)</title><rect x="77.7" y="245" width="30.2" height="15.0" fill="rgb(224,151,27)" rx="2" ry="2" />
<text  x="80.67" y="255.5" >dg..</text>
</g>
<g >
<title>torch/nn/modules/container.py(202):_forward (7,319,236 us., 0.10%)</title><rect x="746.1" y="213" width="1.2" height="15.0" fill="rgb(219,225,14)" rx="2" ry="2" />
<text  x="749.06" y="223.5" ></text>
</g>
<g >
<title>dgl/heterograph.py(2663):_has_nodes (8,879,646 us., 0.12%)</title><rect x="218.7" y="181" width="1.5" height="15.0" fill="rgb(243,33,44)" rx="2" ry="2" />
<text  x="221.72" y="191.5" ></text>
</g>
<g >
<title>torch/optim/optimizer.py(19):__use_grad (1,593,485 us., 0.02%)</title><rect x="879.1" y="245" width="0.3" height="15.0" fill="rgb(251,159,38)" rx="2" ry="2" />
<text  x="882.15" y="255.5" ></text>
</g>
<g >
<title>dgl/backend/pytorch/tensor.py(124):_astype (1,107,400 us., 0.02%)</title><rect x="554.7" y="165" width="0.2" height="15.0" fill="rgb(248,11,5)" rx="2" ry="2" />
<text  x="557.72" y="175.5" ></text>
</g>
<g >
<title>dgl/view.py(69):___getitem__ (184,030,572 us., 2.56%)</title><rect x="77.7" y="261" width="30.2" height="15.0" fill="rgb(219,5,14)" rx="2" ry="2" />
<text  x="80.67" y="271.5" >dg..</text>
</g>
<g >
<title>nn.Module:_GraphConv_2 (73,525,436 us., 1.02%)</title><rect x="734.0" y="229" width="12.1" height="15.0" fill="rgb(249,5,49)" rx="2" ry="2" />
<text  x="736.99" y="239.5" ></text>
</g>
<g >
<title>dgl/_sparse_ops.py(156):__gspmm (75,986,994 us., 1.06%)</title><rect x="509.0" y="69" width="12.5" height="15.0" fill="rgb(254,114,35)" rx="2" ry="2" />
<text  x="512.03" y="79.5" ></text>
</g>
<g >
<title>&lt;built-in_method_clamp_of_Tensor_object_at_0x7f459c0956d0&gt; (1,439,730 us., 0.02%)</title><rect x="164.7" y="197" width="0.3" height="15.0" fill="rgb(230,142,38)" rx="2" ry="2" />
<text  x="167.71" y="207.5" ></text>
</g>
<g >
<title>&lt;built-in_method_zeros_of_type_object_at_0x7f467ee64b00&gt; (9,548,458 us., 0.13%)</title><rect x="732.4" y="37" width="1.6" height="15.0" fill="rgb(225,124,1)" rx="2" ry="2" />
<text  x="735.41" y="47.5" ></text>
</g>
<g >
<title>nn.Module:_GraphConv_0 (2,508,951,756 us., 34.91%)</title><rect x="109.6" y="229" width="411.9" height="15.0" fill="rgb(216,205,47)" rx="2" ry="2" />
<text  x="112.64" y="239.5" >nn.Module:_GraphConv_0</text>
</g>
<g >
<title>nn.Module:_Linear_0 (1,900,382 us., 0.03%)</title><rect x="746.1" y="197" width="0.3" height="15.0" fill="rgb(236,118,34)" rx="2" ry="2" />
<text  x="749.06" y="207.5" ></text>
</g>
<g >
<title>dgl/core.py(303):_invoke_gspmm (966,571,284 us., 13.45%)</title><rect x="575.3" y="165" width="158.7" height="15.0" fill="rgb(222,204,9)" rx="2" ry="2" />
<text  x="578.30" y="175.5" >dgl/core.py(303):_in..</text>
</g>
<g >
<title>dgl/backend/pytorch/tensor.py(184):_min (15,082,801 us., 0.21%)</title><rect x="737.0" y="165" width="2.5" height="15.0" fill="rgb(251,173,9)" rx="2" ry="2" />
<text  x="740.00" y="175.5" ></text>
</g>
<g >
<title>dgl/heterograph.py(2663):_has_nodes (124,149,968 us., 1.73%)</title><rect x="554.7" y="181" width="20.4" height="15.0" fill="rgb(242,194,13)" rx="2" ry="2" />
<text  x="557.72" y="191.5" ></text>
</g>
<g >
<title>nn.Module:_Linear_1 (1,922,211 us., 0.03%)</title><rect x="746.4" y="197" width="0.3" height="15.0" fill="rgb(232,209,19)" rx="2" ry="2" />
<text  x="749.37" y="207.5" ></text>
</g>
<g >
<title>torch/_ops.py(437):___call__ (1,891,523,455 us., 26.32%)</title><rect x="879.5" y="261" width="310.5" height="15.0" fill="rgb(254,169,51)" rx="2" ry="2" />
<text  x="882.48" y="271.5" >torch/_ops.py(437):___call__</text>
</g>
<g >
<title>dgl/_sparse_ops.py(156):__gspmm (9,574,630 us., 0.13%)</title><rect x="732.4" y="69" width="1.6" height="15.0" fill="rgb(223,118,13)" rx="2" ry="2" />
<text  x="735.40" y="79.5" ></text>
</g>
<g >
<title>&lt;built-in_method_min_of_type_object_at_0x7f467ee64b00&gt; (123,021,522 us., 1.71%)</title><rect x="554.9" y="149" width="20.2" height="15.0" fill="rgb(236,143,37)" rx="2" ry="2" />
<text  x="557.90" y="159.5" ></text>
</g>
<g >
<title>&lt;built-in_method_to_of_Tensor_object_at_0x7f466958d270&gt; (2,043,353 us., 0.03%)</title><rect x="552.4" y="197" width="0.3" height="15.0" fill="rgb(236,89,42)" rx="2" ry="2" />
<text  x="555.41" y="207.5" ></text>
</g>
<g >
<title>torch/_ops.py(437):___call__ (411,300,574 us., 5.72%)</title><rect x="10.1" y="181" width="67.5" height="15.0" fill="rgb(215,72,48)" rx="2" ry="2" />
<text  x="13.06" y="191.5" >torch/_..</text>
</g>
<g >
<title>dgl/ops/spmm.py(213):_func (39,627,359 us., 0.55%)</title><rect x="739.5" y="149" width="6.5" height="15.0" fill="rgb(207,0,7)" rx="2" ry="2" />
<text  x="742.54" y="159.5" ></text>
</g>
<g >
<title>&lt;built-in_method__record_function_enter_of_PyCapsule_object_at_0x7f4669283bd0&gt; (1,891,523,455 us., 26.32%)</title><rect x="879.5" y="245" width="310.5" height="15.0" fill="rgb(236,180,14)" rx="2" ry="2" />
<text  x="882.48" y="255.5" >&lt;built-in_method__record_function_enter_o..</text>
</g>
<g >
<title>&lt;built-in_method_type_of_Tensor_object_at_0x7f459c095720&gt; (1,107,400 us., 0.02%)</title><rect x="554.7" y="149" width="0.2" height="15.0" fill="rgb(207,134,44)" rx="2" ry="2" />
<text  x="557.72" y="159.5" ></text>
</g>
<g >
<title>dgl/backend/pytorch/sparse.py(1023):_gspmm (966,571,284 us., 13.45%)</title><rect x="575.3" y="117" width="158.7" height="15.0" fill="rgb(219,40,36)" rx="2" ry="2" />
<text  x="578.30" y="127.5" >dgl/backend/pytorch/..</text>
</g>
<g >
<title>&lt;built-in_method_relu_of_type_object_at_0x7f467ee64b00&gt; (640,499 us., 0.01%)</title><rect x="747.0" y="149" width="0.1" height="15.0" fill="rgb(213,136,34)" rx="2" ry="2" />
<text  x="750.03" y="159.5" ></text>
</g>
<g >
<title>&lt;built-in_function_linear&gt; (1,900,382 us., 0.03%)</title><rect x="746.1" y="165" width="0.3" height="15.0" fill="rgb(233,44,16)" rx="2" ry="2" />
<text  x="749.06" y="175.5" ></text>
</g>
<g >
<title>dgl/ops/spmm.py(213):_func (966,571,284 us., 13.45%)</title><rect x="575.3" y="149" width="158.7" height="15.0" fill="rgb(228,15,4)" rx="2" ry="2" />
<text  x="578.30" y="159.5" >dgl/ops/spmm.py(213)..</text>
</g>
<g >
<title>dgl/backend/pytorch/tensor.py(124):_astype (1,450,296 us., 0.02%)</title><rect x="218.7" y="165" width="0.3" height="15.0" fill="rgb(239,166,3)" rx="2" ry="2" />
<text  x="221.72" y="175.5" ></text>
</g>
<g >
<title>dgl/backend/__init__.py(141):_to_dgl_nd (11,216,979 us., 0.16%)</title><rect x="552.7" y="165" width="1.9" height="15.0" fill="rgb(253,210,40)" rx="2" ry="2" />
<text  x="555.75" y="175.5" ></text>
</g>
<g >
<title>&lt;built-in_method_matmul_of_type_object_at_0x7f467ee64b00&gt; (54,665,677 us., 0.76%)</title><rect x="543.3" y="197" width="9.0" height="15.0" fill="rgb(218,55,37)" rx="2" ry="2" />
<text  x="546.33" y="207.5" ></text>
</g>
<g >
<title>&lt;built-in_method_to_of_Tensor_object_at_0x7f466958d270&gt; (2,997,090 us., 0.04%)</title><rect x="197.5" y="197" width="0.5" height="15.0" fill="rgb(242,105,8)" rx="2" ry="2" />
<text  x="200.50" y="207.5" ></text>
</g>
<g >
<title>dgl/backend/pytorch/tensor.py(237):_gather_row (184,027,565 us., 2.56%)</title><rect x="77.7" y="213" width="30.2" height="15.0" fill="rgb(240,24,24)" rx="2" ry="2" />
<text  x="80.67" y="223.5" >dg..</text>
</g>
<g >
<title>dgl/dataloading/dataloader.py(511):___next__ (411,800,767 us., 5.73%)</title><rect x="10.1" y="261" width="67.6" height="15.0" fill="rgb(241,208,37)" rx="2" ry="2" />
<text  x="13.06" y="271.5" >dgl/dat..</text>
</g>
<g >
<title>dgl/backend/pytorch/tensor.py(401):_arange (3,667,750 us., 0.05%)</title><rect x="220.2" y="165" width="0.6" height="15.0" fill="rgb(222,136,34)" rx="2" ry="2" />
<text  x="223.18" y="175.5" ></text>
</g>
<g >
<title>&lt;built-in_method_apply_of_FunctionMeta_object_at_0x53b7b00&gt; (39,627,359 us., 0.55%)</title><rect x="739.5" y="101" width="6.5" height="15.0" fill="rgb(252,208,40)" rx="2" ry="2" />
<text  x="742.54" y="111.5" ></text>
</g>
<g >
<title>torch/nn/modules/linear.py(113):_forward (2,116,490 us., 0.03%)</title><rect x="746.7" y="181" width="0.3" height="15.0" fill="rgb(218,133,49)" rx="2" ry="2" />
<text  x="749.68" y="191.5" ></text>
</g>
<g >
<title>dgl/heterograph.py(4685):_update_all (966,571,284 us., 13.45%)</title><rect x="575.3" y="197" width="158.7" height="15.0" fill="rgb(212,46,6)" rx="2" ry="2" />
<text  x="578.30" y="207.5" >dgl/heterograph.py(4..</text>
</g>
<g >
<title>torch/_ops.py(437):___call__ (1,060,135 us., 0.01%)</title><rect x="879.0" y="229" width="0.1" height="15.0" fill="rgb(205,104,25)" rx="2" ry="2" />
<text  x="881.97" y="239.5" ></text>
</g>
<g >
<title>&lt;built-in_method_relu_of_type_object_at_0x7f467ee64b00&gt; (739,654 us., 0.01%)</title><rect x="747.1" y="149" width="0.2" height="15.0" fill="rgb(244,122,16)" rx="2" ry="2" />
<text  x="750.14" y="159.5" ></text>
</g>
<g >
<title>dgl/ops/spmm.py(37):_gspmm (966,571,284 us., 13.45%)</title><rect x="575.3" y="133" width="158.7" height="15.0" fill="rgb(210,219,1)" rx="2" ry="2" />
<text  x="578.30" y="143.5" >dgl/ops/spmm.py(37):..</text>
</g>
<g >
<title>dgl/view.py(46):___call__ (3,667,750 us., 0.05%)</title><rect x="220.2" y="181" width="0.6" height="15.0" fill="rgb(211,121,2)" rx="2" ry="2" />
<text  x="223.18" y="191.5" ></text>
</g>
<g >
<title>torch/nn/functional.py(1446):_relu (260,612,012 us., 3.63%)</title><rect x="747.3" y="229" width="42.7" height="15.0" fill="rgb(219,134,1)" rx="2" ry="2" />
<text  x="750.26" y="239.5" >torc..</text>
</g>
<g >
<title>nn.Module:_Sequential_0 (7,319,236 us., 0.10%)</title><rect x="746.1" y="229" width="1.2" height="15.0" fill="rgb(229,202,25)" rx="2" ry="2" />
<text  x="749.06" y="239.5" ></text>
</g>
<g >
<title>dgl/backend/pytorch/tensor.py(151):_sum (1,619,700 us., 0.02%)</title><rect x="218.5" y="181" width="0.2" height="15.0" fill="rgb(236,57,9)" rx="2" ry="2" />
<text  x="221.46" y="191.5" ></text>
</g>
<g >
<title>&lt;built-in_method_run_backward_of_torch._C._EngineBase_object_at_0x7f466fc20940&gt; (541,345,093 us., 7.53%)</title><rect x="790.0" y="245" width="88.9" height="15.0" fill="rgb(246,130,4)" rx="2" ry="2" />
<text  x="793.05" y="255.5" >&lt;built-in_..</text>
</g>
<g >
<title>&lt;built-in_method_sum_of_type_object_at_0x7f467ee64b00&gt; (1,619,700 us., 0.02%)</title><rect x="218.5" y="165" width="0.2" height="15.0" fill="rgb(243,23,37)" rx="2" ry="2" />
<text  x="221.46" y="175.5" ></text>
</g>
<g >
<title>&lt;built-in_method_matmul_of_type_object_at_0x7f467ee64b00&gt; (1,785,400 us., 0.02%)</title><rect x="736.4" y="197" width="0.3" height="15.0" fill="rgb(218,160,36)" rx="2" ry="2" />
<text  x="739.40" y="207.5" ></text>
</g>
<g >
<title>dgl/backend/pytorch/tensor.py(282):_zeros (9,548,458 us., 0.13%)</title><rect x="732.4" y="53" width="1.6" height="15.0" fill="rgb(240,59,10)" rx="2" ry="2" />
<text  x="735.41" y="63.5" ></text>
</g>
<g >
<title>dgl/backend/pytorch/tensor.py(184):_min (7,407,163 us., 0.10%)</title><rect x="219.0" y="165" width="1.2" height="15.0" fill="rgb(219,62,9)" rx="2" ry="2" />
<text  x="221.96" y="175.5" ></text>
</g>
<g >
<title>&lt;built-in_method_type_of_Tensor_object_at_0x7f459c095720&gt; (1,450,296 us., 0.02%)</title><rect x="218.7" y="149" width="0.3" height="15.0" fill="rgb(231,133,45)" rx="2" ry="2" />
<text  x="221.72" y="159.5" ></text>
</g>
<g >
<title>dgl/core.py(364):_message_passing (39,627,359 us., 0.55%)</title><rect x="739.5" y="181" width="6.5" height="15.0" fill="rgb(210,158,4)" rx="2" ry="2" />
<text  x="742.54" y="191.5" ></text>
</g>
<g >
<title>dgl/heterograph.py(3365):_in_degrees (11,640,122 us., 0.16%)</title><rect x="552.7" y="197" width="2.0" height="15.0" fill="rgb(239,174,6)" rx="2" ry="2" />
<text  x="555.75" y="207.5" ></text>
</g>
<g >
<title>&lt;built-in_method_relu_of_type_object_at_0x7f467ee64b00&gt; (260,612,012 us., 3.63%)</title><rect x="747.3" y="213" width="42.7" height="15.0" fill="rgb(247,43,48)" rx="2" ry="2" />
<text  x="750.26" y="223.5" >&lt;bui..</text>
</g>
<g >
<title>&lt;built-in_method__record_function_enter_of_PyCapsule_object_at_0x7f4669283bd0&gt; (411,300,574 us., 5.72%)</title><rect x="10.1" y="165" width="67.5" height="15.0" fill="rgb(219,20,27)" rx="2" ry="2" />
<text  x="13.06" y="175.5" >&lt;built-..</text>
</g>
<g >
<title>&lt;built-in_method_min_of_type_object_at_0x7f467ee64b00&gt; (7,407,163 us., 0.10%)</title><rect x="219.0" y="149" width="1.2" height="15.0" fill="rgb(231,88,16)" rx="2" ry="2" />
<text  x="221.96" y="159.5" ></text>
</g>
<g >
<title>nn.Module:_Linear_2 (2,116,490 us., 0.03%)</title><rect x="746.7" y="197" width="0.3" height="15.0" fill="rgb(208,56,49)" rx="2" ry="2" />
<text  x="749.68" y="207.5" ></text>
</g>
<g >
<title>&lt;built-in_method_arange_of_type_object_at_0x7f467ee64b00&gt; (1,209,194 us., 0.02%)</title><rect x="575.1" y="149" width="0.2" height="15.0" fill="rgb(205,150,54)" rx="2" ry="2" />
<text  x="578.10" y="159.5" ></text>
</g>
<g >
<title>dgl/heterograph.py(3441):_out_degrees (16,171,381 us., 0.22%)</title><rect x="736.9" y="197" width="2.6" height="15.0" fill="rgb(239,6,8)" rx="2" ry="2" />
<text  x="739.89" y="207.5" ></text>
</g>
<g >
<title>dgl/backend/pytorch/tensor.py(429):_zerocopy_to_dgl_ndarray (11,216,979 us., 0.16%)</title><rect x="552.7" y="149" width="1.9" height="15.0" fill="rgb(211,0,33)" rx="2" ry="2" />
<text  x="555.75" y="159.5" ></text>
</g>
<g >
<title>dgl/heterograph_index.py(651):_in_degrees (11,216,979 us., 0.16%)</title><rect x="552.7" y="181" width="1.9" height="15.0" fill="rgb(215,45,32)" rx="2" ry="2" />
<text  x="555.75" y="191.5" ></text>
</g>
<g >
<title>dgl/nn/pytorch/conv/graphconv.py(334):_forward (73,525,436 us., 1.02%)</title><rect x="734.0" y="213" width="12.1" height="15.0" fill="rgb(250,57,51)" rx="2" ry="2" />
<text  x="736.99" y="223.5" ></text>
</g>
<g >
<title>&lt;built-in_method_arange_of_type_object_at_0x7f467ee64b00&gt; (3,667,750 us., 0.05%)</title><rect x="220.2" y="149" width="0.6" height="15.0" fill="rgb(237,52,53)" rx="2" ry="2" />
<text  x="223.18" y="159.5" ></text>
</g>
<g >
<title>dgl/nn/pytorch/conv/graphconv.py(334):_forward (2,508,951,756 us., 34.91%)</title><rect x="109.6" y="213" width="411.9" height="15.0" fill="rgb(228,87,1)" rx="2" ry="2" />
<text  x="112.64" y="223.5" >dgl/nn/pytorch/conv/graphconv.py(334):_forward</text>
</g>
<g >
<title>torch/nn/modules/activation.py(101):_forward (640,499 us., 0.01%)</title><rect x="747.0" y="181" width="0.1" height="15.0" fill="rgb(246,180,11)" rx="2" ry="2" />
<text  x="750.03" y="191.5" ></text>
</g>
<g >
<title>dgl/core.py(303):_invoke_gspmm (39,627,359 us., 0.55%)</title><rect x="739.5" y="165" width="6.5" height="15.0" fill="rgb(234,7,31)" rx="2" ry="2" />
<text  x="742.54" y="175.5" ></text>
</g>
<g >
<title>&lt;built-in_function_linear&gt; (1,922,211 us., 0.03%)</title><rect x="746.4" y="165" width="0.3" height="15.0" fill="rgb(212,65,52)" rx="2" ry="2" />
<text  x="749.37" y="175.5" ></text>
</g>
<g >
<title>torch/optim/adam.py(168):_step (1,593,485 us., 0.02%)</title><rect x="879.1" y="229" width="0.3" height="15.0" fill="rgb(228,74,47)" rx="2" ry="2" />
<text  x="882.15" y="239.5" ></text>
</g>
<g >
<title>torch/nn/modules/linear.py(113):_forward (1,922,211 us., 0.03%)</title><rect x="746.4" y="181" width="0.3" height="15.0" fill="rgb(252,25,42)" rx="2" ry="2" />
<text  x="749.37" y="191.5" ></text>
</g>
<g >
<title>&lt;built-in_method_min_of_type_object_at_0x7f467ee64b00&gt; (15,082,801 us., 0.21%)</title><rect x="737.0" y="149" width="2.5" height="15.0" fill="rgb(254,165,28)" rx="2" ry="2" />
<text  x="740.00" y="159.5" ></text>
</g>
<g >
<title>dgl/nn/pytorch/conv/graphconv.py(334):_forward (1,294,234,426 us., 18.01%)</title><rect x="521.5" y="213" width="212.5" height="15.0" fill="rgb(215,86,21)" rx="2" ry="2" />
<text  x="524.52" y="223.5" >dgl/nn/pytorch/conv/graphcon..</text>
</g>
<g >
<title>&lt;built-in_function__to_dlpack&gt; (11,216,979 us., 0.16%)</title><rect x="552.7" y="133" width="1.9" height="15.0" fill="rgb(217,71,50)" rx="2" ry="2" />
<text  x="555.75" y="143.5" ></text>
</g>
<g >
<title>dgl/backend/pytorch/sparse.py(163):_forward (9,574,630 us., 0.13%)</title><rect x="732.4" y="85" width="1.6" height="15.0" fill="rgb(214,155,16)" rx="2" ry="2" />
<text  x="735.40" y="95.5" ></text>
</g>
<g >
<title>dgl/heterograph.py(3365):_in_degrees (124,647,534 us., 1.73%)</title><rect x="198.0" y="197" width="20.5" height="15.0" fill="rgb(241,143,17)" rx="2" ry="2" />
<text  x="200.99" y="207.5" ></text>
</g>
<g >
<title>dgl/backend/pytorch/tensor.py(429):_zerocopy_to_dgl_ndarray (123,812,035 us., 1.72%)</title><rect x="198.0" y="149" width="20.3" height="15.0" fill="rgb(233,178,36)" rx="2" ry="2" />
<text  x="200.99" y="159.5" ></text>
</g>
<g >
<title>dgl/ops/spmm.py(37):_gspmm (1,831,840,794 us., 25.49%)</title><rect x="220.8" y="133" width="300.7" height="15.0" fill="rgb(227,204,14)" rx="2" ry="2" />
<text  x="223.79" y="143.5" >dgl/ops/spmm.py(37):_gspmm</text>
</g>
<g >
<title>dgl/heterograph.py(4685):_update_all (39,627,359 us., 0.55%)</title><rect x="739.5" y="197" width="6.5" height="15.0" fill="rgb(218,101,35)" rx="2" ry="2" />
<text  x="742.54" y="207.5" ></text>
</g>
<g >
<title>&lt;built-in_function__to_dlpack&gt; (123,812,035 us., 1.72%)</title><rect x="198.0" y="133" width="20.3" height="15.0" fill="rgb(227,145,43)" rx="2" ry="2" />
<text  x="200.99" y="143.5" ></text>
</g>
</g>
</svg>
